<?xml version="1.0" encoding="UTF-8"?>
<svg version="1.1" xmlns="http://www.w3.org/2000/svg" width="454" height="454">
<path d="M0 0 C3.03115252 0.43633742 4.08534835 1.22869895 6.36328125 3.2421875 C12.38688243 8.20161914 18.97051283 12.15745807 25.62744141 16.19775391 C27.32037677 17.22709643 29.00465296 18.27065198 30.6875 19.31640625 C37.97481501 23.74049244 45.5405287 27.13087228 53.37915039 30.42651367 C55.8957524 31.51661683 58.37654933 32.67546818 60.86328125 33.83203125 C87.21632559 45.83929413 116.64864477 51.3138057 145.37792969 53.59130859 C146.27801758 53.66559082 147.17810547 53.73987305 148.10546875 53.81640625 C149.31565674 53.90474731 149.31565674 53.90474731 150.55029297 53.99487305 C152.55078125 54.3671875 152.55078125 54.3671875 154.55078125 56.3671875 C154.94555664 58.44262695 154.94555664 58.44262695 155.1484375 60.98046875 C155.26735352 62.3581543 155.26735352 62.3581543 155.38867188 63.76367188 C155.46279297 64.72595703 155.53691406 65.68824219 155.61328125 66.6796875 C155.76849923 68.57180751 155.9259803 70.46374349 156.0859375 72.35546875 C156.15176025 73.19634033 156.21758301 74.03721191 156.28540039 74.90356445 C156.55811629 77.43528121 157.01492778 79.87903846 157.55078125 82.3671875 C158.21078125 82.3671875 158.87078125 82.3671875 159.55078125 82.3671875 C159.55078125 83.0271875 159.55078125 83.6871875 159.55078125 84.3671875 C158.89078125 84.6971875 158.23078125 85.0271875 157.55078125 85.3671875 C157.56238281 86.61846436 157.57398438 87.86974121 157.5859375 89.15893555 C157.67031012 102.52980609 157.23085603 115.82808511 156.55078125 129.1796875 C156.45396059 131.15557616 156.35760464 133.13148764 156.26171875 135.10742188 C156.03006124 139.86095564 155.79223841 144.61414186 155.55078125 149.3671875 C155.88078125 145.0771875 156.21078125 140.7871875 156.55078125 136.3671875 C157.87078125 136.3671875 159.19078125 136.3671875 160.55078125 136.3671875 C161.21078125 134.7171875 161.87078125 133.0671875 162.55078125 131.3671875 C163.70578125 131.41230469 164.86078125 131.45742187 166.05078125 131.50390625 C170.52528981 131.49898272 174.32324394 130.57296396 178.55078125 129.1796875 C179.24631104 128.95700195 179.94184082 128.73431641 180.65844727 128.50488281 C186.10235273 126.68578283 191.41035349 124.50761526 195.55078125 120.3671875 C195.97651295 117.31408301 196.01692367 114.41630731 195.55078125 111.3671875 C193.71646393 108.98158749 193.71646393 108.98158749 190.55078125 108.3671875 C183.89016591 108.39490507 178.18269122 110.37760421 172.11328125 112.9296875 C170.53238735 113.57959642 168.95040628 114.22686909 167.3671875 114.87109375 C166.33766968 115.30143921 166.33766968 115.30143921 165.28735352 115.74047852 C163.55078125 116.3671875 163.55078125 116.3671875 161.55078125 116.3671875 C161.22078125 117.3571875 160.89078125 118.3471875 160.55078125 119.3671875 C157.12450485 100.7368096 157.12450485 100.7368096 160.48046875 93.453125 C165.02575534 88.87353436 172.37097683 88.0711906 178.5078125 86.796875 C179.9074147 86.5025036 181.3007106 86.17691971 182.68701172 85.82519531 C189.63173822 84.11857926 197.17875174 85.29809072 203.55078125 88.3671875 C211.1961079 93.75012157 217.30425513 100.13455689 219.171875 109.47265625 C220.20063332 118.51936599 219.14221629 126.02571457 213.86328125 133.5546875 C204.36831281 145.09759031 192.56458589 149.33964354 178.55053711 153.64453125 C176.58736708 154.25018219 174.63075944 154.87452127 172.67382812 155.5 C171.42794922 155.88671875 170.18207031 156.2734375 168.8984375 156.671875 C167.77445557 157.02233887 166.65047363 157.37280273 165.49243164 157.73388672 C162.61407658 158.3535608 161.20457446 158.58555562 158.55078125 157.3671875 C157.89078125 156.3771875 157.23078125 155.3871875 156.55078125 154.3671875 C155.89078125 154.3671875 155.23078125 154.3671875 154.55078125 154.3671875 C154.3034021 155.67647217 154.3034021 155.67647217 154.05102539 157.01220703 C150.21645481 177.05566063 145.53695727 196.50014746 139.26586914 215.92578125 C138.45708437 218.2630852 138.45708437 218.2630852 138.55078125 220.3671875 C139.21078125 220.3671875 139.87078125 220.3671875 140.55078125 220.3671875 C140.88078125 221.3571875 141.21078125 222.3471875 141.55078125 223.3671875 C141.793125 222.65691406 142.03546875 221.94664062 142.28515625 221.21484375 C142.78789063 219.83619141 142.78789063 219.83619141 143.30078125 218.4296875 C143.625625 217.51316406 143.95046875 216.59664062 144.28515625 215.65234375 C145.55078125 213.3671875 145.55078125 213.3671875 147.2734375 212.37109375 C154.71103635 212.35833629 163.44979514 218.80315237 168.67578125 223.7421875 C175.18984083 230.91007462 177.90612954 238.66344569 177.55078125 248.3671875 C175.86693735 257.94577491 170.95875736 265.18887544 163.55078125 271.3671875 C155.38233914 276.52293423 147.21943135 277.31196252 137.80078125 275.7421875 C131.77199209 274.07569294 126.15895834 271.08578554 120.55078125 268.3671875 C121.83999341 265.76177968 123.13203721 263.15784377 124.42578125 260.5546875 C124.79058594 259.81669922 125.15539062 259.07871094 125.53125 258.31835938 C126.06298828 257.25004883 126.06298828 257.25004883 126.60546875 256.16015625 C126.93015137 255.5055542 127.25483398 254.85095215 127.58935547 254.17651367 C128.55078125 252.3671875 128.55078125 252.3671875 130.55078125 249.3671875 C137.17578125 250.1171875 137.17578125 250.1171875 140.55078125 252.3671875 C142.96228383 252.68381189 142.96228383 252.68381189 145.55078125 252.6171875 C146.85015625 252.62492187 146.85015625 252.62492187 148.17578125 252.6328125 C150.81657625 252.52133302 150.81657625 252.52133302 153.55078125 250.3671875 C154.72839866 247.04302195 154.72839866 247.04302195 154.55078125 243.3671875 C150.79204478 237.86332338 144.35880276 235.32714242 138.55078125 232.3671875 C138.55078125 230.7171875 138.55078125 229.0671875 138.55078125 227.3671875 C137.89078125 227.3671875 137.23078125 227.3671875 136.55078125 227.3671875 C136.22078125 226.7071875 135.89078125 226.0471875 135.55078125 225.3671875 C135.26468994 226.00519287 134.97859863 226.64319824 134.68383789 227.30053711 C120.53616414 258.756445 104.36137399 286.30704964 80.8984375 311.80078125 C78.84754027 314.04277706 76.84600592 316.31509779 74.86328125 318.6171875 C69.22816377 325.0817732 63.05271156 330.7910984 56.55078125 336.3671875 C55.49571731 337.28602627 54.44106151 338.20533379 53.38671875 339.125 C41.29157882 349.63761421 28.71579791 359.18994985 15.40625 368.11279297 C13.69070096 369.27259441 11.99476299 370.46126284 10.30078125 371.65234375 C9.35203125 372.30074219 8.40328125 372.94914062 7.42578125 373.6171875 C6.61882812 374.17921875 5.811875 374.74125 4.98046875 375.3203125 C1.61049221 376.77232812 0.05843325 376.4566531 -3.44921875 375.3671875 C-6.31848678 373.83374326 -8.96606192 372.03349616 -11.63671875 370.1796875 C-12.41337891 369.65012451 -13.19003906 369.12056152 -13.99023438 368.57495117 C-26.69640068 359.84264092 -39.23775758 350.98070408 -50.44921875 340.3671875 C-51.77665017 339.19381002 -53.10984838 338.02691846 -54.44921875 336.8671875 C-66.73930061 326.12875926 -78.33778486 315.22388422 -88.44921875 302.3671875 C-89.35591684 301.23889653 -90.26350799 300.11132279 -91.171875 298.984375 C-96.23648553 292.66694436 -101.02576787 286.2753013 -105.42578125 279.46875 C-106.86585032 277.26138545 -108.32720689 275.10297529 -109.84765625 272.953125 C-115.1956654 265.31488764 -119.4694896 257.56838149 -123.32470703 249.07519531 C-125.23852279 244.86668786 -127.21809457 240.93068625 -129.76171875 237.0546875 C-132.63397488 232.46064295 -133.90823584 227.84718821 -135.26171875 222.625 C-136.39088382 218.3885854 -137.83156013 214.28013458 -139.27490234 210.14208984 C-149.28439741 181.2873565 -154.9443575 150.93160364 -155.44921875 120.3671875 C-155.46968262 119.46049316 -155.49014648 118.55379883 -155.51123047 117.61962891 C-155.93632257 96.83227396 -154.65153158 76.11028138 -153.44921875 55.3671875 C-150.60929598 53.94722611 -147.9260989 53.92137264 -144.765625 53.60546875 C-143.36284294 53.45924863 -141.96017803 53.31190126 -140.55761719 53.16357422 C-139.8170105 53.0855658 -139.07640381 53.00755737 -138.31335449 52.92718506 C-101.94597588 49.01655869 -67.909386 39.42902812 -35.44921875 22.3671875 C-34.73362793 21.99352051 -34.01803711 21.61985352 -33.28076172 21.23486328 C-17.57069227 12.95144519 -17.57069227 12.95144519 -3.89599609 1.73901367 C-2.44921875 0.3671875 -2.44921875 0.3671875 0 0 Z M-7.88671875 41.7421875 C-29.31869945 54.51683612 -51.51646636 65.16031507 -75.44921875 72.3671875 C-76.46556396 72.67873779 -77.48190918 72.99028809 -78.52905273 73.3112793 C-87.4869915 75.97675034 -96.45931059 77.86730256 -105.63671875 79.5546875 C-107.72338212 79.94353825 -109.80967039 80.33427494 -111.89558411 80.72712708 C-113.75808285 81.0771519 -115.62156751 81.42191881 -117.48510742 81.76635742 C-120.48756153 82.31249174 -120.48756153 82.31249174 -123.44921875 83.3671875 C-127.4027937 131.23368416 -119.81651944 180.44435056 -100.82421875 224.6171875 C-100.28414185 225.91426636 -100.28414185 225.91426636 -99.7331543 227.23754883 C-97.83476317 231.70722589 -97.83476317 231.70722589 -94.14453125 234.5859375 C-90.44843687 234.28596462 -87.31667016 233.07085959 -83.94921875 231.6171875 C-83.29824219 231.35164062 -82.64726562 231.08609375 -81.9765625 230.8125 C-78.27065694 229.27024435 -74.83138733 227.52657206 -71.44921875 225.3671875 C-71.990625 224.31144531 -71.990625 224.31144531 -72.54296875 223.234375 C-76.30085339 215.23843157 -77.80267445 208.1803874 -76.44921875 199.3671875 C-75.14053393 196.05123165 -73.43020937 193.3094457 -71.44921875 190.3671875 C-71.11921875 189.3771875 -70.78921875 188.3871875 -70.44921875 187.3671875 C-68.76171875 186.37109375 -68.76171875 186.37109375 -66.44921875 185.3671875 C-65.50046875 184.88121094 -64.55171875 184.39523438 -63.57421875 183.89453125 C-62.54296875 183.36988281 -61.51171875 182.84523437 -60.44921875 182.3046875 C-59.41796875 181.77746094 -58.38671875 181.25023437 -57.32421875 180.70703125 C-51.75453431 178.11137668 -46.54170142 177.83784064 -40.44921875 178.3671875 C-37.68471742 179.51344415 -35.81055801 181.07332726 -33.50390625 182.94921875 C-24.94549884 189.79296266 -16.2773171 193.54604988 -5.953125 197.12109375 C-1.75142418 198.6153441 2.33593612 200.31692237 6.44140625 202.0546875 C16.21804349 206.18150925 26.06536525 209.98188697 36.0925293 213.45092773 C41.37569268 215.27964322 41.37569268 215.27964322 43.55078125 216.3671875 C48.04874491 216.88618331 50.04644018 216.68473558 53.92578125 214.2421875 C56.84284533 211.04730779 57.64026398 209.6623587 57.55078125 205.3671875 C56.41298253 203.03987194 55.38237411 201.19878036 53.55078125 199.3671875 C46.10126363 198.19863572 41.48307916 201.41310596 35.40625 205.32421875 C30.31854667 206.70052755 28.3811413 205.37280443 23.82788086 203.02124023 C20.06624614 201.12262776 16.23679195 199.58669448 12.3125 198.0625 C10.81693585 197.47296422 9.32149502 196.88311555 7.82617188 196.29296875 C5.53721617 195.39339622 3.24753591 194.49579748 0.95629883 193.60205078 C-27.29212854 182.56508862 -27.29212854 182.56508862 -31.44921875 177.3671875 C-32.04322816 174.86147177 -32.32819123 172.39592145 -32.62890625 169.83984375 C-33.80398106 166.29783255 -35.29488514 165.37631719 -38.44921875 163.3671875 C-41.78585054 161.77395703 -45.19607974 160.40602895 -48.63671875 159.0546875 C-49.60834961 158.66804932 -50.57998047 158.28141113 -51.58105469 157.88305664 C-53.57345359 157.0914019 -55.56711041 156.30290569 -57.56201172 155.51757812 C-60.23783594 154.45141173 -62.89381711 153.3479419 -65.546875 152.2265625 C-76.62634888 147.18388619 -76.62634888 147.18388619 -88.44921875 147.3671875 C-90.54908852 148.91967549 -91.34556819 149.74405018 -91.77734375 152.33984375 C-91.71847273 156.48663936 -91.71847273 156.48663936 -90.44921875 160.3671875 C-89.45921875 160.3671875 -88.46921875 160.3671875 -87.44921875 160.3671875 C-87.11921875 161.3571875 -86.78921875 162.3471875 -86.44921875 163.3671875 C-83.7796927 164.74698421 -83.7796927 164.74698421 -80.51171875 165.8671875 C-79.34382813 166.29386719 -78.1759375 166.72054687 -76.97265625 167.16015625 C-72.49920052 168.6926372 -68.00534588 170.102168 -63.44921875 171.3671875 C-67.38803317 175.84928667 -71.9447679 178.7169746 -77.0234375 181.81640625 C-79.50708936 183.28179252 -79.50708936 183.28179252 -81.44921875 185.3671875 C-89.05046679 185.3671875 -96.72760842 182.08024241 -102.1484375 176.671875 C-102.79232422 176.02605469 -102.79232422 176.02605469 -103.44921875 175.3671875 C-104.10921875 175.3671875 -104.76921875 175.3671875 -105.44921875 175.3671875 C-105.73667969 174.7896875 -106.02414063 174.2121875 -106.3203125 173.6171875 C-107.0332419 172.19626247 -107.75363363 170.77903499 -108.484375 169.3671875 C-108.82339844 168.7071875 -109.16242188 168.0471875 -109.51171875 167.3671875 C-110.02412109 166.3771875 -110.02412109 166.3771875 -110.546875 165.3671875 C-113.8081552 158.1387223 -112.77317576 150.98581829 -110.3515625 143.6875 C-107.76833066 137.04490384 -103.50682466 132.9016598 -97.44921875 129.3671875 C-85.04068021 124.03211538 -74.8449814 126.67974434 -62.65234375 131.46484375 C-60.74207616 132.26078858 -58.83741097 133.07026609 -56.9375 133.890625 C-53.37745098 135.39756624 -49.78957981 136.81010678 -46.18847656 138.21508789 C-41.92463536 139.89028213 -37.68593932 141.62478341 -33.44921875 143.3671875 C-32.73781738 143.65319824 -32.02641602 143.93920898 -31.29345703 144.23388672 C-20.4241255 148.68103557 -15.72947208 154.30202648 -10.82421875 164.8671875 C-8.36704454 169.33477697 -3.38266762 170.97241911 1.11328125 173.0546875 C2.04269531 173.49167969 2.97210938 173.92867187 3.9296875 174.37890625 C6.70770948 175.6023901 6.70770948 175.6023901 10.55078125 175.3671875 C10.76992187 174.48417969 10.9890625 173.60117188 11.21484375 172.69140625 C16.32804624 153.3402212 16.32804624 153.3402212 23.44140625 148.33203125 C27.65298456 145.98357639 32.09244063 144.18781085 36.55078125 142.3671875 C37.69466309 141.89071777 38.83854492 141.41424805 40.01708984 140.92333984 C82.93124965 123.06820819 82.93124965 123.06820819 96.86328125 127.9296875 C104.32274978 131.36056485 109.26719369 137.00300574 112.66015625 144.43359375 C115.08016939 152.40477737 114.84299031 160.7599476 111.23828125 168.3046875 C106.29690415 176.13630404 96.70944194 183.2714219 87.55078125 185.3671875 C81.9919913 185.16811238 78.88381089 182.79999837 74.73828125 179.4296875 C74.15369141 178.97400391 73.56910156 178.51832031 72.96679688 178.04882812 C68.70525602 174.67613704 68.70525602 174.67613704 67.55078125 172.3671875 C68.46859375 171.98046875 69.38640625 171.59375 70.33203125 171.1953125 C82.46606616 166.81810779 82.46606616 166.81810779 92.55078125 159.3671875 C93.61557352 155.86858433 93.81431562 154.04927647 92.48828125 150.6171875 C89.89247915 147.60270764 88.5112657 146.94325797 84.55078125 146.3671875 C81.06745355 146.95105957 77.85851892 148.14966758 74.55078125 149.3671875 C73.94347168 149.5847168 73.33616211 149.80224609 72.71044922 150.02636719 C65.07028777 152.76376133 57.56650273 155.67338234 50.2265625 159.1484375 C46.2211063 160.97282047 42.10357558 162.51054568 37.984375 164.05859375 C35.50432086 165.17418104 35.50432086 165.17418104 34.21875 167.12890625 C33.3512852 170.03567425 33.35993989 172.58848507 33.42578125 175.6171875 C33.44382812 176.69484375 33.461875 177.7725 33.48046875 178.8828125 C33.50367188 179.70265625 33.526875 180.5225 33.55078125 181.3671875 C34.76765625 181.0371875 35.98453125 180.7071875 37.23828125 180.3671875 C45.71091723 178.5096222 55.91259838 177.57252617 63.55078125 182.3671875 C70.27544667 187.49512871 75.8220403 192.60471767 78.30078125 200.8671875 C78.98500539 207.70942893 78.0316208 212.46054392 75.5234375 218.81640625 C74.6919136 220.99706933 74.05669742 223.09322745 73.55078125 225.3671875 C77.76051614 228.04160731 82.12700409 230.10379433 86.67578125 232.1171875 C87.74892578 232.61025391 87.74892578 232.61025391 88.84375 233.11328125 C93.07397358 235.12642466 93.07397358 235.12642466 97.55078125 234.3671875 C98.66862209 232.7860896 98.66862209 232.7860896 99.53125 230.7734375 C100.06431763 229.61896118 100.06431763 229.61896118 100.6081543 228.44116211 C100.98109619 227.59175049 101.35403809 226.74233887 101.73828125 225.8671875 C102.13120361 224.97717041 102.52412598 224.08715332 102.92895508 223.17016602 C122.24887941 178.1860562 125.37816407 131.58133018 124.55078125 83.3671875 C121.37390325 82.72814149 118.19674195 82.09051464 115.01953125 81.453125 C114.1284668 81.27386475 113.23740234 81.09460449 112.31933594 80.90991211 C107.23722142 79.89115796 102.15058425 78.91802787 97.05078125 77.9921875 C63.59028511 71.1994552 32.40745846 56.42198708 3.5625 38.51171875 C-0.85717471 35.9972242 -4.03204973 39.39914494 -7.88671875 41.7421875 Z M-54.32421875 200.4296875 C-56.06479315 203.42734341 -56.33043826 205.92255341 -56.44921875 209.3671875 C-54.86082941 212.94106352 -53.73287517 214.17808322 -50.44921875 216.3671875 C-43.84898101 217.50698759 -38.10839851 215.76496812 -32.44921875 212.3671875 C-31.43412788 211.38250962 -30.43175352 210.38435288 -29.44921875 209.3671875 C-31.95841952 207.68032984 -34.47918497 206.0183549 -37.01171875 204.3671875 C-37.71619141 203.89023438 -38.42066406 203.41328125 -39.14648438 202.921875 C-43.9256105 199.83856782 -48.80301061 197.30100289 -54.32421875 200.4296875 Z M-7.69921875 225.0546875 C-8.41779053 225.32579346 -9.1363623 225.59689941 -9.87670898 225.8762207 C-12.06839866 226.70431077 -14.25897387 227.5352844 -16.44921875 228.3671875 C-17.67253906 228.83125 -18.89585937 229.2953125 -20.15625 229.7734375 C-26.61500106 232.23371007 -26.61500106 232.23371007 -32.94921875 234.9921875 C-36.28597538 236.30305618 -39.38847254 237.05534954 -42.88671875 237.8046875 C-47.40639331 238.79881093 -51.0815786 239.96695561 -55.1015625 242.203125 C-58.40710769 243.84214741 -61.86034005 245.04911615 -65.32421875 246.3046875 C-71.59730566 248.59169738 -77.5722138 251.17439154 -83.44921875 254.3671875 C-82.94215274 259.05317681 -80.80860303 262.1739327 -78.07421875 265.8671875 C-77.63086182 266.47667236 -77.18750488 267.08615723 -76.73071289 267.71411133 C-72.75644152 273.10334296 -68.48601079 278.21266306 -64.10546875 283.2734375 C-61.62341748 286.14174459 -59.25231116 289.08936744 -56.88671875 292.0546875 C-50.18014359 300.28221809 -42.55941453 307.54134657 -34.44921875 314.3671875 C-33.49789062 315.17285156 -32.5465625 315.97851562 -31.56640625 316.80859375 C-24.25441981 322.98120596 -24.25441981 322.98120596 -16.64453125 328.77734375 C-14.84203105 330.08271311 -13.07396118 331.43549856 -11.31640625 332.80078125 C-10.173977 333.65731795 -9.03074454 334.51278438 -7.88671875 335.3671875 C-7.3563501 335.79008057 -6.82598145 336.21297363 -6.27954102 336.64868164 C-3.19374467 338.90037615 -1.76853885 339.41132985 2.0546875 338.8828125 C8.56045724 336.06243411 13.96180223 331.65899894 19.55078125 327.3671875 C20.17710449 326.8932959 20.80342773 326.4194043 21.44873047 325.93115234 C31.52202105 318.2416765 40.59170534 309.61433782 49.55078125 300.6796875 C50.08144196 300.152612 50.61210266 299.6255365 51.15884399 299.08248901 C60.86938822 289.40732224 69.4916713 279.09029357 77.55078125 267.9921875 C78.12183594 267.22519531 78.69289063 266.45820313 79.28125 265.66796875 C80.09529297 264.54841797 80.09529297 264.54841797 80.92578125 263.40625 C81.40789062 262.74834473 81.89 262.09043945 82.38671875 261.41259766 C83.71607478 259.07674514 84.15555175 257.01143372 84.55078125 254.3671875 C83.99841797 254.1312085 83.44605469 253.89522949 82.87695312 253.65209961 C81.21668958 252.94249857 79.55663374 252.23241147 77.89672852 251.52197266 C75.98378769 250.70375845 74.07020208 249.88705025 72.15600586 249.07177734 C67.77585095 247.20141789 63.40679111 245.32049617 59.0859375 243.31640625 C58.40917969 243.00646729 57.73242188 242.69652832 57.03515625 242.37719727 C55.2454081 241.55303097 53.46226007 240.71457343 51.6796875 239.875 C48.24086508 238.45685983 44.80911086 237.78705798 41.16015625 237.08984375 C32.43319584 235.31786031 24.45451421 232.04833395 16.23828125 228.6796875 C13.98973043 227.77011538 11.73994024 226.86368205 9.48970032 225.95829773 C8.10397267 225.39945321 6.71946966 224.83756019 5.33634949 224.27229309 C-0.23703948 222.00292661 -2.17136299 222.96062056 -7.69921875 225.0546875 Z " fill="#0F0F10" transform="translate(225.44921875,43.6328125)"/>
<path d="M0 0 C4.02469473 1.46015628 7.44510468 3.40589626 11.0625 5.6875 C12.22345513 6.40966376 13.38492433 7.13100166 14.546875 7.8515625 C15.69796074 8.56763748 16.84900414 9.28378055 18 10 C26.3283552 15.17768114 34.81335754 19.26908772 43.82836914 23.05932617 C46.34497115 24.14942933 48.82576808 25.30828068 51.3125 26.46484375 C77.66554434 38.47210663 107.09786352 43.9466182 135.82714844 46.22412109 C136.72723633 46.29840332 137.62732422 46.37268555 138.5546875 46.44921875 C139.36147949 46.50811279 140.16827148 46.56700684 140.99951172 46.62768555 C143 47 143 47 145 49 C145.39477539 51.07543945 145.39477539 51.07543945 145.59765625 53.61328125 C145.71657227 54.9909668 145.71657227 54.9909668 145.83789062 56.39648438 C145.94907227 57.83991211 145.94907227 57.83991211 146.0625 59.3125 C146.21771798 61.20462001 146.37519905 63.09655599 146.53515625 64.98828125 C146.600979 65.82915283 146.66680176 66.67002441 146.73461914 67.53637695 C147.00733504 70.06809371 147.46414653 72.51185096 148 75 C148.66 75 149.32 75 150 75 C150 75.66 150 76.32 150 77 C149.01 77.495 149.01 77.495 148 78 C148.01160156 79.25127686 148.02320313 80.50255371 148.03515625 81.79174805 C148.11952887 95.16261859 147.68007478 108.46089761 147 121.8125 C146.90317934 123.78838866 146.80682339 125.76430014 146.7109375 127.74023438 C146.47927999 132.49376814 146.24145716 137.24695436 146 142 C146.33 137.71 146.66 133.42 147 129 C148.32 129 149.64 129 151 129 C151.66 127.35 152.32 125.7 153 124 C154.155 124.04511719 155.31 124.09023437 156.5 124.13671875 C160.97450856 124.13179522 164.77246269 123.20577646 169 121.8125 C170.04329468 121.47847168 170.04329468 121.47847168 171.10766602 121.13769531 C176.55157148 119.31859533 181.85957224 117.14042776 186 113 C186.4257317 109.94689551 186.46614242 107.04911981 186 104 C184.16568268 101.61439999 184.16568268 101.61439999 181 101 C174.33938466 101.02771757 168.63190997 103.01041671 162.5625 105.5625 C160.9816061 106.21240892 159.39962503 106.85968159 157.81640625 107.50390625 C156.78688843 107.93425171 156.78688843 107.93425171 155.73657227 108.37329102 C154 109 154 109 152 109 C151.67 109.99 151.34 110.98 151 112 C147.5737236 93.3696221 147.5737236 93.3696221 150.9296875 86.0859375 C155.47497409 81.50634686 162.82019558 80.7040031 168.95703125 79.4296875 C170.35663345 79.1353161 171.74992935 78.80973221 173.13623047 78.45800781 C180.08095697 76.75139176 187.62797049 77.93090322 194 81 C201.64532665 86.38293407 207.75347388 92.76736939 209.62109375 102.10546875 C210.64985207 111.15217849 209.59143504 118.65852707 204.3125 126.1875 C194.81753156 137.73040281 183.01380464 141.97245604 168.99975586 146.27734375 C167.03658583 146.88299469 165.07997819 147.50733377 163.12304688 148.1328125 C161.87716797 148.51953125 160.63128906 148.90625 159.34765625 149.3046875 C158.22367432 149.65515137 157.09969238 150.00561523 155.94165039 150.36669922 C153.06329533 150.9863733 151.65379321 151.21836812 149 150 C148.34 149.01 147.68 148.02 147 147 C146.34 147 145.68 147 145 147 C144.75262085 148.30928467 144.75262085 148.30928467 144.50024414 149.64501953 C140.66567356 169.68847313 135.98617602 189.13295996 129.71508789 208.55859375 C128.90630312 210.8958977 128.90630312 210.8958977 129 213 C129.66 213 130.32 213 131 213 C131.33 213.99 131.66 214.98 132 216 C132.36351562 214.93458984 132.36351562 214.93458984 132.734375 213.84765625 C133.06953125 212.92855469 133.4046875 212.00945312 133.75 211.0625 C134.07484375 210.14597656 134.3996875 209.22945312 134.734375 208.28515625 C136 206 136 206 137.72265625 205.00390625 C145.1602551 204.99114879 153.89901389 211.43596487 159.125 216.375 C165.63905958 223.54288712 168.35534829 231.29625819 168 241 C166.3161561 250.57858741 161.40797611 257.82168794 154 264 C145.83155789 269.15574673 137.6686501 269.94477502 128.25 268.375 C122.22121084 266.70850544 116.60817709 263.71859804 111 261 C112.28921216 258.39459218 113.58125596 255.79065627 114.875 253.1875 C115.23980469 252.44951172 115.60460937 251.71152344 115.98046875 250.95117188 C116.33496094 250.23896484 116.68945312 249.52675781 117.0546875 248.79296875 C117.37937012 248.1383667 117.70405273 247.48376465 118.03857422 246.80932617 C119 245 119 245 121 242 C127.625 242.75 127.625 242.75 131 245 C133.41150258 245.31662439 133.41150258 245.31662439 136 245.25 C136.86625 245.25515625 137.7325 245.2603125 138.625 245.265625 C141.265795 245.15414552 141.265795 245.15414552 144 243 C145.17761741 239.67583445 145.17761741 239.67583445 145 236 C141.24126353 230.49613588 134.80802151 227.95995492 129 225 C129 223.35 129 221.7 129 220 C128.34 220 127.68 220 127 220 C126.67 219.34 126.34 218.68 126 218 C125.71390869 218.63800537 125.42781738 219.27601074 125.13305664 219.93334961 C120.28648554 230.70920554 115.44271236 241.4784022 109.9375 251.9375 C109.56826416 252.64575928 109.19902832 253.35401855 108.81860352 254.08374023 C106.25238993 258.87380504 106.25238993 258.87380504 104 260 C105.36258948 255.09630971 107.57164814 250.90707454 109.9855957 246.46459961 C134.83200858 200.73781375 144.88528961 149.92131946 144.3125 98.25 C144.30179984 96.22455114 144.29516573 94.19912066 144.28926277 92.17365265 C144.24695961 78.08990927 144.01565616 64.04971131 143 50 C139.59890302 49.07875128 136.27045439 48.70828174 132.75927734 48.40551758 C104.61527214 45.96023672 77.01551418 40.186729 51 29 C49.84636963 28.51756836 49.84636963 28.51756836 48.66943359 28.02539062 C38.36323977 23.70310127 28.49265623 18.78986613 18.75 13.3125 C17.79778564 12.77802246 16.84557129 12.24354492 15.86450195 11.69287109 C10.31393256 8.51057743 4.85177852 5.20170926 0 1 C0 0.67 0 0.34 0 0 Z " fill="#111111" transform="translate(235,51)"/>
<path d="M0 0 C2 1 2 1 3.125 3.9375 C4.87866356 10.70163088 4.72250633 17.53404746 2 24 C-2.13012619 23.41433957 -5.78176761 22.44933044 -9.6875 21 C-16.16527344 18.77881834 -23.31786074 16.77262025 -30 19 C-32.35618542 21.88599388 -32.35618542 21.88599388 -31.8125 25.5 C-30.87084681 29.55635219 -29.77120358 30.8637562 -26.34375 33.0625 C-18.25001548 37.17795823 -9.93809401 39.1902209 -0.8984375 39.7890625 C1 40 1 40 2 41 C2.40713885 43.85591558 2.75605255 46.69551386 3.0625 49.5625 C3.15337891 50.34947266 3.24425781 51.13644531 3.33789062 51.94726562 C3.89155154 56.99681968 4.08727189 61.92077579 4 67 C0.62814376 67 -1.1219894 66.79641048 -4.1953125 65.79296875 C-5.38543945 65.41011719 -5.38543945 65.41011719 -6.59960938 65.01953125 C-7.43298828 64.74496094 -8.26636719 64.47039062 -9.125 64.1875 C-10.846077 63.62805285 -12.56742855 63.0694496 -14.2890625 62.51171875 C-15.10922852 62.24536621 -15.92939453 61.97901367 -16.77441406 61.70458984 C-19.33108213 60.89518396 -21.90928757 60.19169507 -24.5 59.5 C-34.53918632 56.47951438 -45.00469858 50.43262645 -50.6328125 41.37109375 C-54.98217084 32.83392466 -56.56115764 24.73366788 -54.3515625 15.203125 C-51.58563283 7.59090831 -47.04339906 1.30304841 -39.75 -2.4375 C-26.60161986 -8.30167754 -12.91187089 -4.58988417 0 0 Z " fill="#121212" transform="translate(63,135)"/>
<path d="M0 0 C1.17538461 2.74656201 2.34049752 5.49674122 3.5 8.25 C3.83386719 9.02730469 4.16773438 9.80460937 4.51171875 10.60546875 C4.98544922 11.73662109 4.98544922 11.73662109 5.46875 12.890625 C5.76201172 13.58188477 6.05527344 14.27314453 6.35742188 14.98535156 C7 17 7 17 7 21 C6.16855469 21.31453125 5.33710937 21.6290625 4.48046875 21.953125 C3.39378906 22.38109375 2.30710938 22.8090625 1.1875 23.25 C0.10855469 23.66765625 -0.97039062 24.0853125 -2.08203125 24.515625 C-5.09435335 26.04799769 -6.35764009 27.08777418 -8 30 C-8.41572708 33.32581667 -8.43987824 35.23021308 -6.765625 38.16015625 C-5.15804074 40.17201817 -5.15804074 40.17201817 -2.8359375 40.49609375 C3.25916833 40.35097218 8.34704979 39.29395081 14 37 C18.3031554 41.78128378 22.81140617 48.22812347 23.140625 54.8125 C23.09421875 55.534375 23.0478125 56.25625 23 57 C20.77335683 57.985267 18.54398683 58.96331444 16.3125 59.9375 C15.37374023 60.35418945 15.37374023 60.35418945 14.41601562 60.77929688 C5.84501254 64.5038689 -3.13141251 65.49064931 -12 62 C-19.74056891 57.87257569 -26.7314864 52.09740116 -29.52734375 43.4921875 C-31.55621288 32.79451392 -30.37374568 23.42304724 -24.890625 14.1171875 C-20.00654124 7.39403516 -8.23210354 0 0 0 Z " fill="#171717" transform="translate(81,256)"/>
<path d="M0 0 C9.3729574 1.47632662 18.17808346 6.50772857 24 14 C28 19.89850746 28 19.89850746 28 23 C28.66 23 29.32 23 30 23 C31.44262837 32.14244003 30.73065281 39.02631096 26.25 47.1875 C20.65340524 54.18324345 15.24180519 59.07944456 6.5625 61.75 C-5.92350094 62.96814643 -14.84618411 59.40688027 -26 54 C-24.71078784 51.39459218 -23.41874404 48.79065627 -22.125 46.1875 C-21.76019531 45.44951172 -21.39539063 44.71152344 -21.01953125 43.95117188 C-20.66503906 43.23896484 -20.31054688 42.52675781 -19.9453125 41.79296875 C-19.62062988 41.1383667 -19.29594727 40.48376465 -18.96142578 39.80932617 C-18 38 -18 38 -16 35 C-9.375 35.75 -9.375 35.75 -6 38 C-3.58849742 38.31662439 -3.58849742 38.31662439 -1 38.25 C0.299375 38.25773437 0.299375 38.25773437 1.625 38.265625 C4.265795 38.15414552 4.265795 38.15414552 7 36 C8.17761741 32.67583445 8.17761741 32.67583445 8 29 C5.41579793 25.41546165 2.69563341 23.79715685 -1.25 22.0625 C-4.84688074 20.36265088 -4.84688074 20.36265088 -6.1875 17.1875 C-5.95363523 13.21179894 -4.75309505 10.56880064 -3 7 C-2.42979471 5.69082911 -1.86698469 4.37840624 -1.3125 3.0625 C-0.879375 2.051875 -0.44625 1.04125 0 0 Z " fill="#131313" transform="translate(372,258)"/>
<path d="M0 0 C4.02469473 1.46015628 7.44510468 3.40589626 11.0625 5.6875 C12.22345513 6.40966376 13.38492433 7.13100166 14.546875 7.8515625 C15.69796074 8.56763748 16.84900414 9.28378055 18 10 C26.3283552 15.17768114 34.81335754 19.26908772 43.82836914 23.05932617 C46.34497115 24.14942933 48.82576808 25.30828068 51.3125 26.46484375 C77.66554434 38.47210663 107.09786352 43.9466182 135.82714844 46.22412109 C136.72723633 46.29840332 137.62732422 46.37268555 138.5546875 46.44921875 C139.36147949 46.50811279 140.16827148 46.56700684 140.99951172 46.62768555 C143 47 143 47 145 49 C145.39477539 51.07543945 145.39477539 51.07543945 145.59765625 53.61328125 C145.71657227 54.9909668 145.71657227 54.9909668 145.83789062 56.39648438 C145.94907227 57.83991211 145.94907227 57.83991211 146.0625 59.3125 C146.21771798 61.20462001 146.37519905 63.09655599 146.53515625 64.98828125 C146.600979 65.82915283 146.66680176 66.67002441 146.73461914 67.53637695 C147.00733504 70.06809371 147.46414653 72.51185096 148 75 C148.66 75 149.32 75 150 75 C150 75.66 150 76.32 150 77 C149.01 77.495 149.01 77.495 148 78 C148.01160156 79.25127686 148.02320313 80.50255371 148.03515625 81.79174805 C148.11952887 95.16261859 147.68007478 108.46089761 147 121.8125 C146.90317934 123.78838866 146.80682339 125.76430014 146.7109375 127.74023438 C146.47927999 132.49376814 146.24145716 137.24695436 146 142 C146.33 137.71 146.66 133.42 147 129 C148.32 129 149.64 129 151 129 C151.66 127.35 152.32 125.7 153 124 C154.155 124.04511719 155.31 124.09023437 156.5 124.13671875 C160.97456553 124.13179515 164.77238517 123.20563296 169 121.8125 C169.69625488 121.58981445 170.39250977 121.36712891 171.10986328 121.13769531 C176.2865593 119.40930184 180.5533975 117.2015538 185 114 C185.66 113.67 186.32 113.34 187 113 C185.9485036 116.12699911 184.96986543 117.01906473 182.12890625 118.81640625 C172.83922321 123.36458623 164.53353398 127 154 127 C153.34 134.26 152.68 141.52 152 149 C153.835625 148.38125 155.67125 147.7625 157.5625 147.125 C170.92339406 142.69232691 170.92339406 142.69232691 176 143 C171.94322732 145.70451512 167.70507084 146.79111458 163.0625 148.1875 C162.15564453 148.47302734 161.24878906 148.75855469 160.31445312 149.05273438 C159.43853516 149.31763672 158.56261719 149.58253906 157.66015625 149.85546875 C156.86230713 150.09934326 156.06445801 150.34321777 155.24243164 150.59448242 C152.73710911 151.04754075 151.34827628 150.97201318 149 150 C148.34 149.01 147.68 148.02 147 147 C146.34 147 145.68 147 145 147 C144.75262085 148.30928467 144.75262085 148.30928467 144.50024414 149.64501953 C140.66567356 169.68847313 135.98617602 189.13295996 129.71508789 208.55859375 C128.90630312 210.8958977 128.90630312 210.8958977 129 213 C129.66 213 130.32 213 131 213 C131.33 213.99 131.66 214.98 132 216 C132.36351562 214.93458984 132.36351562 214.93458984 132.734375 213.84765625 C133.06953125 212.92855469 133.4046875 212.00945312 133.75 211.0625 C134.07484375 210.14597656 134.3996875 209.22945312 134.734375 208.28515625 C136 206 136 206 137.72265625 205.00390625 C145.26971152 204.99096104 153.96844716 211.50654256 159.1875 216.5625 C162.1344136 219.78380034 164.60008053 222.8002416 166 227 C165.67 227.99 165.34 228.98 165 230 C164.6596875 229.35933594 164.319375 228.71867188 163.96875 228.05859375 C157.32866165 216.20886162 149.26814808 211.7039388 137 207 C136.80664062 207.75925781 136.61328125 208.51851562 136.4140625 209.30078125 C136.15367187 210.29464844 135.89328125 211.28851563 135.625 212.3125 C135.36976563 213.29863281 135.11453125 214.28476562 134.8515625 215.30078125 C134 218 134 218 132 221 C131.83286431 223.62531524 131.83286431 223.62531524 132 226 C131.01 225.67 130.02 225.34 129 225 C129 223.35 129 221.7 129 220 C128.34 220 127.68 220 127 220 C126.67 219.34 126.34 218.68 126 218 C125.71390869 218.63800537 125.42781738 219.27601074 125.13305664 219.93334961 C120.28648554 230.70920554 115.44271236 241.4784022 109.9375 251.9375 C109.56826416 252.64575928 109.19902832 253.35401855 108.81860352 254.08374023 C106.25238993 258.87380504 106.25238993 258.87380504 104 260 C105.36258948 255.09630971 107.57164814 250.90707454 109.9855957 246.46459961 C134.83200858 200.73781375 144.88528961 149.92131946 144.3125 98.25 C144.30179984 96.22455114 144.29516573 94.19912066 144.28926277 92.17365265 C144.24695961 78.08990927 144.01565616 64.04971131 143 50 C139.59890302 49.07875128 136.27045439 48.70828174 132.75927734 48.40551758 C104.61527214 45.96023672 77.01551418 40.186729 51 29 C49.84636963 28.51756836 49.84636963 28.51756836 48.66943359 28.02539062 C38.36323977 23.70310127 28.49265623 18.78986613 18.75 13.3125 C17.79778564 12.77802246 16.84557129 12.24354492 15.86450195 11.69287109 C10.31393256 8.51057743 4.85177852 5.20170926 0 1 C0 0.67 0 0.34 0 0 Z " fill="#D4D4D4" transform="translate(235,51)"/>
<path d="M0 0 C0.33 0 0.66 0 1 0 C1.2759936 8.35229125 0.59081589 16.06665382 -1.0625 24.25 C-1.39096924 25.9208667 -1.39096924 25.9208667 -1.72607422 27.62548828 C-3.72778089 37.41575409 -6.40862971 46.94854426 -9.3515625 56.4921875 C-11.12727755 62.27324324 -12.58532259 68.12157206 -14 74 C-13.34 74 -12.68 74 -12 74 C-11.67 74.99 -11.34 75.98 -11 77 C-10.75765625 76.28972656 -10.5153125 75.57945312 -10.265625 74.84765625 C-9.93046875 73.92855469 -9.5953125 73.00945312 -9.25 72.0625 C-8.92515625 71.14597656 -8.6003125 70.22945313 -8.265625 69.28515625 C-7 67 -7 67 -5.27734375 66.00390625 C2.26971152 65.99096104 10.96844716 72.50654256 16.1875 77.5625 C19.1344136 80.78380034 21.60008053 83.8002416 23 88 C22.505 89.485 22.505 89.485 22 91 C21.6596875 90.35933594 21.319375 89.71867187 20.96875 89.05859375 C14.32866165 77.20886162 6.26814808 72.7039388 -6 68 C-6.19335938 68.75925781 -6.38671875 69.51851563 -6.5859375 70.30078125 C-6.84632813 71.29464844 -7.10671875 72.28851563 -7.375 73.3125 C-7.63023437 74.29863281 -7.88546875 75.28476562 -8.1484375 76.30078125 C-9 79 -9 79 -11 82 C-11.16713569 84.62531524 -11.16713569 84.62531524 -11 87 C-12.485 86.505 -12.485 86.505 -14 86 C-14 84.35 -14 82.7 -14 81 C-14.66 81 -15.32 81 -16 81 C-16.495 80.01 -16.495 80.01 -17 79 C-17.28609131 79.63800537 -17.57218262 80.27601074 -17.86694336 80.93334961 C-22.71351446 91.70920554 -27.55728764 102.4784022 -33.0625 112.9375 C-33.43173584 113.64575928 -33.80097168 114.35401855 -34.18139648 115.08374023 C-36.74761007 119.87380504 -36.74761007 119.87380504 -39 121 C-37.63741052 116.09630971 -35.42835186 111.90707454 -33.0144043 107.46459961 C-14.95751874 74.23310888 -4.53247987 37.45259684 0 0 Z " fill="#D3D3D3" transform="translate(378,190)"/>
<path d="M0 0 C2.76276177 0.52268466 5.3260876 1.10869587 8 2 C7.52315493 7.14595301 4.90423134 10.53302747 2 14.625 C1.50306641 15.33430664 1.00613281 16.04361328 0.49414062 16.77441406 C-9.68072667 31.15081107 -21.69446973 43.77004186 -34.0625 56.25 C-35.30253784 57.50961548 -35.30253784 57.50961548 -36.56762695 58.79467773 C-45.00858002 67.24732302 -54.31300203 74.33492897 -63.9375 81.375 C-64.77345703 81.98988281 -65.60941406 82.60476563 -66.47070312 83.23828125 C-75.68726121 90.00449337 -75.68726121 90.00449337 -78.71875 89.9609375 C-83.07977547 88.68378004 -85.96988962 86.42039103 -89.5 83.625 C-90.19416016 83.08842773 -90.88832031 82.55185547 -91.60351562 81.99902344 C-93.0390183 80.88680275 -94.4706517 79.76957078 -95.8984375 78.64746094 C-97.87874129 77.09505736 -99.87344277 75.5639114 -101.875 74.0390625 C-107.6486555 69.61417706 -113.16041166 65.11635002 -118.1953125 59.84375 C-120.73716166 57.24688246 -123.48124589 54.91131013 -126.234375 52.54296875 C-128.24941639 50.78203656 -130.14694398 48.93026669 -132 47 C-131.67 46.34 -131.34 45.68 -131 45 C-130.05640625 45.96099609 -130.05640625 45.96099609 -129.09375 46.94140625 C-123.89996893 52.18994104 -118.64854165 57.24597829 -113 62 C-112.04867187 62.80566406 -111.09734375 63.61132812 -110.1171875 64.44140625 C-102.80520106 70.61401846 -102.80520106 70.61401846 -95.1953125 76.41015625 C-93.3928123 77.71552561 -91.62474243 79.06831106 -89.8671875 80.43359375 C-88.72475825 81.29013045 -87.58152579 82.14559688 -86.4375 83 C-85.90713135 83.42289307 -85.3767627 83.84578613 -84.83032227 84.28149414 C-81.74452592 86.53318865 -80.3193201 87.04414235 -76.49609375 86.515625 C-69.99102163 83.69554904 -64.58719054 79.29334412 -59 75 C-58.36835938 74.52079102 -57.73671875 74.04158203 -57.0859375 73.54785156 C-47.21772244 65.99187515 -38.28796023 57.57541655 -29.5 48.8125 C-28.99325745 48.30934265 -28.48651489 47.8061853 -27.9644165 47.28778076 C-18.40794357 37.76778736 -9.9451185 27.5715003 -2.0625 16.625 C-1.49982422 15.85800781 -0.93714844 15.09101563 -0.35742188 14.30078125 C2.27502738 10.65875469 4.62744268 7.33348287 6 3 C4.02 2.34 2.04 1.68 0 1 C0 0.67 0 0.34 0 0 Z " fill="#DADADA" transform="translate(304,295)"/>
<path d="M0 0 C1.46676155 1.16588739 2.92915782 2.33734221 4.3828125 3.51953125 C12.94121991 10.36327516 21.60940165 14.11636238 31.93359375 17.69140625 C36.13529457 19.1856566 40.22265487 20.88723487 44.328125 22.625 C54.10476224 26.75182175 63.952084 30.55219947 73.97924805 34.02124023 C79.26241143 35.84995572 79.26241143 35.84995572 81.4375 36.9375 C85.46127473 37.31710139 87.75914891 37.32091583 91.3125 35.3125 C93.93750993 32.37866537 94.4375 30.86361327 94.4375 26.9375 C93.11320727 23.61944858 93.11320727 23.61944858 91.4375 20.9375 C95.3125 22.6875 95.3125 22.6875 96.4375 24.9375 C96.8119411 29.89884453 96.67648133 33.05072241 93.4375 36.9375 C89.34518867 39.86057952 86.25361976 40.22941253 81.31982422 39.58886719 C74.73449401 38.10066958 68.52844777 35.21211236 62.3125 32.625 C59.19066961 31.34307636 56.06599558 30.0681501 52.94140625 28.79296875 C52.15229355 28.46960541 51.36318085 28.14624207 50.55015564 27.81307983 C45.23847243 25.64423043 39.89886248 23.56651703 34.52734375 21.55078125 C33.82293152 21.28504807 33.11851929 21.01931488 32.39276123 20.74552917 C28.34718751 19.22024485 28.34718751 19.22024485 24.29217529 17.7203064 C15.74280832 14.58572121 7.86288232 11.57184079 2.3125 4.0625 C-2.74708314 0.32280811 -8.52908522 1.13430956 -14.5625 1.9375 C-20.35692757 3.6497859 -25.32804278 5.57511356 -29.5625 9.9375 C-30.2225 9.9375 -30.8825 9.9375 -31.5625 9.9375 C-31.830625 10.535625 -32.09875 11.13375 -32.375 11.75 C-33.54743467 13.90974808 -34.75619282 15.29540256 -36.5625 16.9375 C-34.21289113 9.46147177 -28.2208892 5.43495714 -21.5625 1.9375 C-14.83494786 -1.11054258 -7.06203136 -2.92815934 0 0 Z " fill="#D2D2D2" transform="translate(187.5625,222.0625)"/>
<path d="M0 0 C2.74630419 1.1629601 5.49753584 2.27865184 8.2734375 3.3671875 C17.58207604 7.01859871 26.67358963 10.74644215 35.49609375 15.48046875 C34.83609375 15.81046875 34.17609375 16.14046875 33.49609375 16.48046875 C31.11409354 15.65128301 28.84437529 14.75561666 26.53125 13.76171875 C25.83045822 13.46806427 25.12966644 13.17440979 24.40763855 12.87185669 C22.90340187 12.24114979 21.40049937 11.60725335 19.89880371 10.97052002 C16.0090981 9.32493777 12.10503492 7.71403068 8.203125 6.09765625 C6.68172058 5.46601974 5.16039656 4.83418951 3.63916016 4.20214844 C2.92826233 3.90691284 2.2173645 3.61167725 1.48492432 3.30749512 C-0.25907479 2.58227836 -2.00194519 1.85434851 -3.74462891 1.12597656 C-15.02127804 -3.54340188 -25.69327866 -7.22791469 -37.94140625 -3.39453125 C-45.28280781 -0.01465687 -49.55899196 5.05485154 -52.50390625 12.48046875 C-54.73177949 19.16408846 -54.78361132 27.82181474 -51.69140625 34.23046875 C-49.71163836 37.61680591 -49.71163836 37.61680591 -46.50390625 39.48046875 C-46.50390625 40.47046875 -46.50390625 41.46046875 -46.50390625 42.48046875 C-47.16390625 42.48046875 -47.82390625 42.48046875 -48.50390625 42.48046875 C-53.88588278 36.03087187 -57.00620432 29.18436922 -56.7578125 20.65625 C-55.65625231 11.21672651 -51.77567749 3.82913351 -44.4375 -2.19921875 C-30.00656302 -12.05307067 -14.50837765 -6.26191598 0 0 Z " fill="#C6C6C6" transform="translate(168.50390625,176.51953125)"/>
<path d="M0 0 C2.27143774 1.51730235 4.03161194 3.08341163 6 5 C2.49277364 5 0.73851912 3.79652536 -2.18359375 1.97265625 C-10.12664399 -2.28071904 -20.55061121 -0.60890851 -28.85424805 1.72216797 C-32.25027957 2.77008627 -35.62285121 3.8927381 -39 5 C-39.33 11.6 -39.66 18.2 -40 25 C-35.5681377 23.32146033 -35.5681377 23.32146033 -31.14550781 21.61889648 C-27.61040962 20.31796811 -25.56385654 19.87690728 -22 21 C-24.95619219 22.1721449 -27.91528789 23.33677476 -30.875 24.5 C-31.71675781 24.83386719 -32.55851562 25.16773438 -33.42578125 25.51171875 C-34.23144531 25.82753906 -35.03710938 26.14335937 -35.8671875 26.46875 C-36.98262939 26.90864258 -36.98262939 26.90864258 -38.12060547 27.35742188 C-40 28 -40 28 -42 28 C-42.495 29.485 -42.495 29.485 -43 31 C-46.4262764 12.3696221 -46.4262764 12.3696221 -43.0703125 5.0859375 C-38.52502591 0.50634686 -31.17980442 -0.2959969 -25.04296875 -1.5703125 C-23.64336655 -1.8646839 -22.25007065 -2.19026779 -20.86376953 -2.54199219 C-13.82787042 -4.27101324 -6.5442043 -2.83471455 0 0 Z " fill="#C4C4C4" transform="translate(429,132)"/>
<path d="M0 0 C-4.1032224 0.83802913 -8.20772362 1.66961878 -12.3125 2.5 C-13.47974609 2.73847656 -14.64699219 2.97695312 -15.84960938 3.22265625 C-16.96787109 3.44824219 -18.08613281 3.67382812 -19.23828125 3.90625 C-20.26993408 4.11572266 -21.30158691 4.32519531 -22.36450195 4.54101562 C-25 5 -25 5 -28 5 C-28.28471853 28.47394735 -28.32389633 51.94513156 -24.3671875 75.16796875 C-23.93943783 78.46710181 -23.94206474 81.67699929 -24 85 C-24.33 85 -24.66 85 -25 85 C-25.46798815 82.70997798 -25.92412171 80.41840978 -26.375 78.125 C-26.63023438 76.84882813 -26.88546875 75.57265625 -27.1484375 74.2578125 C-29.7018979 59.36237094 -30.29606604 44.70787628 -30.20581055 29.61645508 C-30.18718549 26.38289759 -30.18530406 23.14962194 -30.18554688 19.91601562 C-30.18064333 17.8593725 -30.17482017 15.80273131 -30.16796875 13.74609375 C-30.16685593 12.77965439 -30.1657431 11.81321503 -30.16459656 10.81748962 C-30.15821671 9.93468826 -30.15183685 9.0518869 -30.14526367 8.14233398 C-30.14145187 7.36389633 -30.13764008 6.58545868 -30.13371277 5.78343201 C-30 4 -30 4 -29 3 C-24.9248026 2.13701702 -20.79995027 1.53426511 -16.6875 0.875 C-15.53314453 0.68035156 -14.37878906 0.48570313 -13.18945312 0.28515625 C-12.07892578 0.10597656 -10.96839844 -0.07320313 -9.82421875 -0.2578125 C-8.80416748 -0.4242627 -7.78411621 -0.59071289 -6.7331543 -0.76220703 C-4.14803919 -0.98712013 -2.43879196 -0.81450775 0 0 Z " fill="#D7D7D7" transform="translate(130,122)"/>
<path d="M0 0 C3.09072241 0.80231142 6.04228479 1.79976774 9 3 C5.25659651 4.19258872 2.92498437 3.4610912 -0.8359375 2.42578125 C-4.5003137 1.70481193 -7.35890869 2.18389333 -11 3 C-13.35618542 5.88599388 -13.35618542 5.88599388 -12.8125 9.5 C-11.87084681 13.55635219 -10.77120358 14.8637562 -7.34375 17.0625 C0.74998452 21.17795823 9.06190599 23.1902209 18.1015625 23.7890625 C20 24 20 24 21 25 C21.40713885 27.85591558 21.75605255 30.69551386 22.0625 33.5625 C22.15337891 34.34947266 22.24425781 35.13644531 22.33789062 35.94726562 C22.89155154 40.99681968 23.08727189 45.92077579 23 51 C21.68 51 20.36 51 19 51 C19.99 50.67 20.98 50.34 22 50 C21.855625 49.44054687 21.71125 48.88109375 21.5625 48.3046875 C19.83322981 40.83520097 19.80184354 33.64003247 20 26 C19.37996094 26.05800781 18.75992188 26.11601562 18.12109375 26.17578125 C7.29846742 26.72715231 -3.27413644 23.4517732 -12 17 C-14.38055679 14.06397996 -14.96279262 12.26045167 -15.5 8.5 C-15 5 -15 5 -13.125 2.0625 C-8.68971451 -0.86478843 -5.17156487 -0.73225697 0 0 Z " fill="#E2E2E2" transform="translate(44,151)"/>
<path d="M0 0 C0.33 0 0.66 0 1 0 C1.11480713 0.65669678 1.22961426 1.31339355 1.34790039 1.98999023 C6.76261782 32.52878492 14.81862023 62.68770984 28.91796875 90.47265625 C29.27503906 91.30667969 29.63210937 92.14070313 30 93 C29.67 93.66 29.34 94.32 29 95 C28.52949219 94.11957031 28.05898437 93.23914063 27.57421875 92.33203125 C26.95160156 91.17058594 26.32898438 90.00914062 25.6875 88.8125 C25.07261719 87.66394531 24.45773438 86.51539063 23.82421875 85.33203125 C22.7309906 83.33519268 21.59416846 81.36003487 20.375 79.4375 C18.8345219 76.70665246 18.0952463 74.22302832 17.3125 71.1875 C15.80163193 65.62449535 14.06084488 60.20439289 12.16699219 54.76025391 C8.80448573 45.04617128 5.90228071 35.32519288 3.5625 25.3125 C3.1924585 23.75644043 3.1924585 23.75644043 2.81494141 22.16894531 C1.16081673 14.80132095 0.40215624 7.53566007 0 0 Z " fill="#CECECE" transform="translate(74,199)"/>
<path d="M0 0 C1.17538461 2.74656201 2.34049752 5.49674122 3.5 8.25 C3.83386719 9.02730469 4.16773438 9.80460937 4.51171875 10.60546875 C4.98544922 11.73662109 4.98544922 11.73662109 5.46875 12.890625 C5.76201172 13.58188477 6.05527344 14.27314453 6.35742188 14.98535156 C7 17 7 17 7 21 C2.375 23.125 2.375 23.125 -1 22 C0.98 21.34 2.96 20.68 5 20 C2.03 11.585 2.03 11.585 -1 3 C-6.16335076 3.86055846 -8.01795121 4.30461135 -12.125 6.9375 C-16.86124005 9.94006963 -16.86124005 9.94006963 -19.1796875 10.94140625 C-21.51407579 12.29895824 -21.98062905 13.53085703 -23 16 C-23.34160156 16.67160156 -23.68320312 17.34320313 -24.03515625 18.03515625 C-24.37417969 18.70417969 -24.71320312 19.37320312 -25.0625 20.0625 C-25.40410156 20.73410156 -25.74570312 21.40570313 -26.09765625 22.09765625 C-29.05723962 28.33712422 -29.0234071 35.93719711 -27.3515625 42.57421875 C-25.02205395 48.27852815 -21.25644881 52.6120317 -17 57 C-20 57 -20 57 -21.71875 55.53125 C-29.06322442 47.15597215 -30.60405834 40.91011696 -30.34765625 29.6953125 C-29.66823907 22.47364223 -27.05395731 16.10598981 -22.1171875 10.734375 C-16.29003341 5.96083918 -7.53345524 0 0 0 Z " fill="#D3D3D3" transform="translate(81,256)"/>
<path d="M0 0 C6.10529199 1.03571918 10.15454898 6.10467192 14.3125 10.375 C17.95115125 16.03512417 19.81145398 22.27652414 19 29 C18.092762 31.86474701 17.07565646 34.65416087 15.97265625 37.44921875 C15.14113235 39.62988183 14.50591617 41.72603995 14 44 C16.35114592 45.13169701 18.70559335 46.25541381 21.0625 47.375 C22.04766602 47.85066406 22.04766602 47.85066406 23.05273438 48.3359375 C27.30783967 50.34820404 31.44038214 51.82600216 36 53 C36.99 51.02 37.98 49.04 39 47 C39.33 47.99 39.66 48.98 40 50 C38.5625 52.6875 38.5625 52.6875 37 55 C31.27452382 54.40125739 26.47111314 52.27281333 21.25 50 C20.38761719 49.63132812 19.52523438 49.26265625 18.63671875 48.8828125 C12.51991758 46.25995879 12.51991758 46.25995879 10 45 C10.43486586 42.56475116 10.91709819 41.1081328 12.4375 39.125 C16.6239215 33.43146675 16.74747125 26.8029345 16 20 C13.61163261 10.97568967 7.21408387 5.46521506 0 0 Z " fill="#D2D2D2" transform="translate(286,225)"/>
<path d="M0 0 C12.18930598 -0.73824868 23.89230833 0.44615416 35 6 C37.88604316 13.53577935 38.16104243 21.49252423 35 29 C30.80530429 28.40075776 26.99000166 27.42500059 23 26 C26 25 26 25 33 26 C33 19.73 33 13.46 33 7 C30.31006149 6.26026691 27.61955523 5.52251678 24.92578125 4.796875 C22.67220664 4.18308432 20.4276721 3.53603439 18.1875 2.875 C12.26843762 1.3859277 6.07004522 1.32396309 0 1 C0 0.67 0 0.34 0 0 Z " fill="#CDCDCD" transform="translate(30,130)"/>
<path d="M0 0 C4.28465926 0.7617172 6.75279415 3.53728771 9.8125 6.5 C5.90411134 6.5 4.69655893 4.99432124 1.8125 2.5 C-2.05115286 3.86607726 -4.93995321 5.63983462 -8.1875 8.125 C-18.01508881 15.37869651 -28.40166052 21.2499312 -39.1875 26.9375 C-40.19135742 27.47020508 -41.19521484 28.00291016 -42.22949219 28.55175781 C-43.18500977 29.04901367 -44.14052734 29.54626953 -45.125 30.05859375 C-45.97964844 30.50517334 -46.83429688 30.95175293 -47.71484375 31.41186523 C-50.21346086 32.51142452 -52.49892099 33.07224419 -55.1875 33.5 C-53.82797916 30.78095831 -52.3769562 30.49429873 -49.62109375 29.25 C-48.19168457 28.59221558 -48.19168457 28.59221558 -46.73339844 27.92114258 C-45.70762695 27.45216553 -44.68185547 26.98318848 -43.625 26.5 C-30.62169369 20.41738693 -13.0129591 2.97439065 0 0 Z " fill="#D9D9D9" transform="translate(225.1875,43.5)"/>
<path d="M0 0 C3.875 1.75 3.875 1.75 5 4 C5.39447548 8.18144011 5.45035186 10.30946048 3.125 13.875 C0.15175902 16.84824098 -0.60795738 16.96888551 -4.9375 17.3125 C-10.74385724 17.28413018 -15.70594344 15.21657695 -21 13 C-21.20625 13.763125 -21.4125 14.52625 -21.625 15.3125 C-23.55894391 20.49898594 -26.2785146 25.19033084 -29 30 C-28.21625 30.12375 -27.4325 30.2475 -26.625 30.375 C-24 31 -24 31 -22 33 C-25.36327963 32.43945339 -27.99112219 31.58158962 -31 30 C-29.71078784 27.39459218 -28.41874404 24.79065627 -27.125 22.1875 C-26.57779297 21.08051758 -26.57779297 21.08051758 -26.01953125 19.95117188 C-25.48779297 18.88286133 -25.48779297 18.88286133 -24.9453125 17.79296875 C-24.62062988 17.1383667 -24.29594727 16.48376465 -23.96142578 15.80932617 C-23 14 -23 14 -21 11 C-14.375 11.75 -14.375 11.75 -11 14 C-8.58849742 14.31662439 -8.58849742 14.31662439 -6 14.25 C-4.700625 14.25773437 -4.700625 14.25773437 -3.375 14.265625 C-0.734205 14.15414552 -0.734205 14.15414552 2 12 C3.06681329 7.96134968 3.42105712 5.86042106 1.5625 2.0625 C1.046875 1.381875 0.53125 0.70125 0 0 Z " fill="#D7D7D7" transform="translate(377,282)"/>
<path d="M0 0 C-0.96099609 0.32871094 -0.96099609 0.32871094 -1.94140625 0.6640625 C-9.69306683 3.50595297 -15.50875255 6.6621255 -19.375 14.1875 C-22.67817408 21.4688446 -23.53851298 29.87416219 -21.2109375 37.62890625 C-19.57059751 41.02854218 -18.15968241 42.89354506 -15 45 C-15 45.99 -15 46.98 -15 48 C-15.66 48 -16.32 48 -17 48 C-22.38197653 41.55040312 -25.50229807 34.70390047 -25.25390625 26.17578125 C-24.15348253 16.74599648 -20.28046282 9.34175834 -12.9375 3.328125 C-8.92304922 0.57628374 -4.80909137 -1.60303046 0 0 Z " fill="#D0D0D0" transform="translate(137,171)"/>
<path d="M0 0 C3.85622818 1.28540939 4.3965617 2.76941277 6.5 6.1875 C7.0878125 7.12980469 7.675625 8.07210937 8.28125 9.04296875 C10 12 10 12 11.25390625 15.125 C13.63218336 19.0409104 16.30781399 20.0980666 20.4375 21.8125 C21.10587891 22.11091797 21.77425781 22.40933594 22.46289062 22.71679688 C25.58687479 24.08837763 28.64480411 25.3392581 32 26 C32.10957031 25.18015625 32.21914062 24.3603125 32.33203125 23.515625 C32.56986328 21.89914063 32.56986328 21.89914063 32.8125 20.25 C32.96332031 19.18265625 33.11414063 18.1153125 33.26953125 17.015625 C34.01320407 13.94548906 34.92765472 12.33919522 37 10 C36 16 35 22 34 28 C25.86293584 27.09941347 15.17910409 24.96835602 9.65039062 18.39550781 C7.83833885 15.50103572 6.61146231 12.58531852 5.359375 9.40234375 C3.92278549 5.80674183 2.23486854 3.13741161 0 0 Z " fill="#D3D3D3" transform="translate(204,193)"/>
<path d="M0 0 C0.66 0.33 1.32 0.66 2 1 C1.34 1.66 0.68 2.32 0 3 C-0.24287489 5.44012949 -0.24287489 5.44012949 -0.125 8.125 C-0.10695312 9.03507813 -0.08890625 9.94515625 -0.0703125 10.8828125 C-0.04710937 11.58148438 -0.02390625 12.28015625 0 13 C0.99 13 1.98 13 3 13 C3.41765625 13.4434375 3.8353125 13.886875 4.265625 14.34375 C6.77120548 16.7364665 9.48217157 17.40604885 12.75 18.5 C17.60301677 20.1628867 22.32779887 21.8863852 27 24 C25.60064115 27.40364888 24.12995268 28.90806188 21 30.8125 C20.29875 31.25207031 19.5975 31.69164062 18.875 32.14453125 C18.25625 32.42683594 17.6375 32.70914063 17 33 C16.34 32.67 15.68 32.34 15 32 C16.12073862 31.16094435 17.24674547 30.32892169 18.375 29.5 C19.00148437 29.0359375 19.62796875 28.571875 20.2734375 28.09375 C22 27 22 27 24 27 C22.35226296 23.70452592 18.69120934 23.27769309 15.375 22.125 C1.53956835 17.30935252 1.53956835 17.30935252 -2 12 C-2.265625 9.58984375 -2.265625 9.58984375 -2.25 6.9375 C-2.25515625 6.05964844 -2.2603125 5.18179688 -2.265625 4.27734375 C-2 2 -2 2 0 0 Z " fill="#D4D4D4" transform="translate(135,191)"/>
<path d="M0 0 C3.96308215 3.31792924 7.80680801 6.73240415 11.58447266 10.25830078 C25.25963644 23.54133764 25.25963644 23.54133764 41 34 C40.67 34.99 40.34 35.98 40 37 C22.0456332 22.51824818 22.0456332 22.51824818 16 17 C15.38205566 16.44014404 14.76411133 15.88028809 14.12744141 15.3034668 C12.09973089 13.4588388 10.08029447 11.60546753 8.0625 9.75 C7.38630615 9.13455322 6.7101123 8.51910645 6.01342773 7.88500977 C5.38122314 7.29905029 4.74901855 6.71309082 4.09765625 6.109375 C3.23926147 5.31998535 3.23926147 5.31998535 2.36352539 4.51464844 C1 3 1 3 0 0 Z " fill="#CBCBCB" transform="translate(172,340)"/>
<path d="M0 0 C0.33 0 0.66 0 1 0 C1 6.93 1 13.86 1 21 C1.99 21.33 2.98 21.66 4 22 C3.360625 22.103125 2.72125 22.20625 2.0625 22.3125 C1.0415625 22.6528125 1.0415625 22.6528125 0 23 C-0.33 23.99 -0.66 24.98 -1 26 C-4.20334262 8.58182451 -4.20334262 8.58182451 0 0 Z " fill="#FBFBFB" transform="translate(387,137)"/>
<path d="M0 0 C1.14229879 3.42689636 0.90861076 5.61102218 0.5625 9.1875 C0.40974609 10.81751953 0.40974609 10.81751953 0.25390625 12.48046875 C0.17011719 13.31191406 0.08632813 14.14335937 0 15 C1.216875 14.505 2.43375 14.01 3.6875 13.5 C11.22997192 10.97787389 19.71276058 10.61278316 27 14 C24 15 24 15 21 14 C13.92600933 13.2820076 8.44495151 14.15336634 1.99609375 17.125 C0 18 0 18 -2 18 C-2.05397335 15.5622037 -2.09365616 13.12560315 -2.125 10.6875 C-2.14175781 9.99720703 -2.15851563 9.30691406 -2.17578125 8.59570312 C-2.21217794 4.82864604 -2.14378864 3.21568296 0 0 Z " fill="#CCCCCC" transform="translate(259,210)"/>
<path d="M0 0 C0 0.99 0 1.98 0 3 C-5.19457703 7.74805179 -12.44598952 9.87092773 -19 12 C-19.67546875 12.22816406 -20.3509375 12.45632812 -21.046875 12.69140625 C-24.77931536 13.87224468 -28.0975939 14.19036127 -32 14 C-32.33 15.32 -32.66 16.64 -33 18 C-33 15.69 -33 13.38 -33 11 C-31.2675 11.06767578 -31.2675 11.06767578 -29.5 11.13671875 C-25.02549144 11.13179522 -21.22753731 10.20577646 -17 8.8125 C-16.30447021 8.58981445 -15.60894043 8.36712891 -14.89233398 8.13769531 C-9.44842852 6.31859533 -4.14042776 4.14042776 0 0 Z " fill="#C9C9C9" transform="translate(421,164)"/>
<path d="M0 0 C2 3 2 3 2 5 C2.66 5 3.32 5 4 5 C4 5.66 4 6.32 4 7 C3.01 7.495 3.01 7.495 2 8 C2.01160156 9.28390625 2.02320313 10.5678125 2.03515625 11.890625 C2.11076404 24.29620947 1.74481835 36.61739498 1 49 C0.67 49 0.34 49 0 49 C0 32.83 0 16.66 0 0 Z " fill="#F9F9F9" transform="translate(381,121)"/>
<path d="M0 0 C0 3 0 3 -2.4140625 5.77734375 C-3.47661074 6.83856047 -4.54731344 7.89165997 -5.625 8.9375 C-6.40810547 9.72543945 -6.40810547 9.72543945 -7.20703125 10.52929688 C-10.57034836 13.84693931 -13.99071154 16.50171965 -18 19 C-18.66 17.68 -19.32 16.36 -20 15 C-19.34 14.01 -18.68 13.02 -18 12 C-16.38931641 11.83177734 -16.38931641 11.83177734 -14.74609375 11.66015625 C-10.13254524 10.84713258 -8.07833969 8.77869999 -5.0625 5.4375 C-4.56943359 4.91736328 -4.07636719 4.39722656 -3.56835938 3.86132812 C-2.36467071 2.58752167 -1.18027648 1.29552951 0 0 Z " fill="#8A8A8A" transform="translate(302,358)"/>
<path d="M0 0 C2.58030939 1.29015469 2.7281049 2.29851023 3.8046875 4.9375 C4.14113281 5.75089844 4.47757812 6.56429688 4.82421875 7.40234375 C5.17097656 8.25957031 5.51773438 9.11679687 5.875 10 C6.55898141 11.66704214 7.243875 13.33371032 7.9296875 15 C8.26581055 15.825 8.60193359 16.65 8.94824219 17.5 C10.32581684 20.77445786 11.83369184 23.98365476 13.36767578 27.1875 C13.57634277 27.785625 13.78500977 28.38375 14 29 C13.67 29.66 13.34 30.32 13 31 C12.52949219 30.11957031 12.05898437 29.23914063 11.57421875 28.33203125 C10.64029297 26.58986328 10.64029297 26.58986328 9.6875 24.8125 C9.07261719 23.66394531 8.45773438 22.51539063 7.82421875 21.33203125 C6.72504862 19.32433934 5.58627483 17.33664739 4.375 15.39453125 C2.94976652 12.91251954 2.10570837 10.61975279 1.3125 7.875 C1.06113281 7.02679688 0.80976562 6.17859375 0.55078125 5.3046875 C0 3 0 3 0 0 Z " fill="#D5D5D5" transform="translate(90,263)"/>
<path d="M0 0 C3.35951302 0.60538788 6.44884363 1.43324081 9.64453125 2.62890625 C10.90620117 3.09780273 10.90620117 3.09780273 12.19335938 3.57617188 C13.48983398 4.0644043 13.48983398 4.0644043 14.8125 4.5625 C15.69615234 4.89185547 16.57980469 5.22121094 17.49023438 5.56054688 C19.66143495 6.37034601 21.83127889 7.18358893 24 8 C19.71601834 9.33621245 16.66743438 8.20257697 12.5625 6.75 C11.90701172 6.53214844 11.25152344 6.31429687 10.57617188 6.08984375 C6.75788225 4.78005935 3.33342076 3.28650827 0 1 C0 0.67 0 0.34 0 0 Z " fill="#C0C0C0" transform="translate(33,168)"/>
<path d="M0 0 C0.59332061 4.37573952 1.13827236 8.57528444 1 13 C0.01 12.67 -0.98 12.34 -2 12 C-2 10.35 -2 8.7 -2 7 C-2.66 7 -3.32 7 -4 7 C-4.33 5.35 -4.66 3.7 -5 2 C-2 0 -2 0 0 0 Z " fill="#F8F8F8" transform="translate(366,264)"/>
<path d="M0 0 C1.61189613 4.02974033 0.22409257 6.98769658 -1 11 C-1.36950465 13.32787927 -1.71352467 15.66045145 -2 18 C-3.65 18 -5.3 18 -7 18 C-7 17.34 -7 16.68 -7 16 C-6.01 16 -5.02 16 -4 16 C-3.87882813 15.18015625 -3.75765625 14.3603125 -3.6328125 13.515625 C-3.46523437 12.43796875 -3.29765625 11.3603125 -3.125 10.25 C-2.96257812 9.18265625 -2.80015625 8.1153125 -2.6328125 7.015625 C-2.06776118 4.32291129 -1.36577086 2.36427561 0 0 Z " fill="#C5C5C5" transform="translate(240,203)"/>
<path d="M0 0 C0.33 0 0.66 0 1 0 C1 6.6 1 13.2 1 20 C0.67 20 0.34 20 0 20 C-0.3902803 17.41814569 -0.76263148 14.83579017 -1.125 12.25 C-1.23714844 11.52039063 -1.34929687 10.79078125 -1.46484375 10.0390625 C-2.00206512 6.0994391 -2.3715758 3.33777335 0 0 Z " fill="#E7E7E7" transform="translate(387,137)"/>
<path d="M0 0 C3.875 1.75 3.875 1.75 5 4 C5.37453505 8.96258946 5.14142028 12.04413742 2 16 C1.01 16.33 0.02 16.66 -1 17 C1 13 1 13 2.1875 11.125 C3.33738342 8.11761261 2.78584011 6.07787377 2 3 C1.34 2.01 0.68 1.02 0 0 Z " fill="#DEDEDE" transform="translate(279,243)"/>
<path d="M0 0 C-0.33 0.99 -0.66 1.98 -1 3 C-3.14453125 3.87890625 -3.14453125 3.87890625 -5.8125 4.5625 C-8.44798247 5.25154047 -10.73529601 5.85724373 -13.13671875 7.15234375 C-15 8 -15 8 -18 7 C-17.41992188 6.74605469 -16.83984375 6.49210938 -16.2421875 6.23046875 C-12.65088708 4.64816312 -9.11063338 3.05736546 -5.625 1.25 C-3 0 -3 0 0 0 Z " fill="#C1C1C1" transform="translate(314,207)"/>
<path d="M0 0 C0.66 0.33 1.32 0.66 2 1 C-1.23854737 2.96488941 -4.41563177 4.75187178 -8 6 C-11.625 4.8125 -11.625 4.8125 -14 3 C-14 2.67 -14 2.34 -14 2 C-12.98679688 2.03480469 -12.98679688 2.03480469 -11.953125 2.0703125 C-11.06109375 2.08835938 -10.1690625 2.10640625 -9.25 2.125 C-8.36828125 2.14820313 -7.4865625 2.17140625 -6.578125 2.1953125 C-3.87117062 1.9902402 -2.37397689 1.228275 0 0 Z " fill="#B1B1B1" transform="translate(265,245)"/>
<path d="M0 0 C1.32 0.66 2.64 1.32 4 2 C3.67 2.99 3.34 3.98 3 5 C2.01 5.33 1.02 5.66 0 6 C-0.99 5.34 -1.98 4.68 -3 4 C-3.33 4.66 -3.66 5.32 -4 6 C-4 5.01 -4 4.02 -4 3 C-2 1.3125 -2 1.3125 0 0 Z " fill="#131213" transform="translate(225,45)"/>
<path d="M0 0 C0.33 0 0.66 0 1 0 C1.10824843 1.6026782 1.18570645 3.20745748 1.25 4.8125 C1.29640625 5.70582031 1.3428125 6.59914062 1.390625 7.51953125 C1 10 1 10 -1.015625 11.82421875 C-1.67046875 12.21222656 -2.3253125 12.60023438 -3 13 C-2.68991116 11.39536551 -2.37683713 9.79130769 -2.0625 8.1875 C-1.88847656 7.29417969 -1.71445312 6.40085938 -1.53515625 5.48046875 C-1 3 -1 3 0 0 Z " fill="#ABABAB" transform="translate(339,233)"/>
<path d="M0 0 C3.7952131 1.49097658 5.61042731 3.75700849 8 7 C7.01 7 6.02 7 5 7 C0 1.53488372 0 1.53488372 0 0 Z " fill="#191718" transform="translate(163,333)"/>
<path d="M0 0 C0.33 0.66 0.66 1.32 1 2 C0.01 3.485 0.01 3.485 -1 5 C-1 6.32 -1 7.64 -1 9 C-2.32 9 -3.64 9 -5 9 C-4.42647107 5.12867972 -2.51295648 2.91827204 0 0 Z " fill="#E0E0E0" transform="translate(301,261)"/>
<path d="" fill="#FEFEFE" transform="translate(0,0)"/>
</svg>
