<svg width="603" height="571" viewBox="0 0 603 571" fill="none" xmlns="http://www.w3.org/2000/svg">
<ellipse cx="301.5" cy="285.5" rx="301.5" ry="285.5" fill="white"/>
<path d="M299.449 102.633C302.48 103.069 303.534 103.862 305.812 105.875C311.836 110.834 318.419 114.79 325.076 118.831C326.769 119.86 328.453 120.903 330.136 121.949C337.424 126.373 344.989 129.764 352.828 133.059C355.345 134.149 357.825 135.308 360.312 136.465C386.665 148.472 416.097 153.947 444.827 156.224C445.727 156.298 446.627 156.373 447.554 156.449C448.764 156.538 448.764 156.538 449.999 156.628C452 157 452 157 454 159C454.394 161.075 454.394 161.075 454.597 163.613C454.716 164.991 454.716 164.991 454.837 166.396C454.912 167.359 454.986 168.321 455.062 169.312C455.217 171.205 455.375 173.097 455.535 174.988C455.601 175.829 455.666 176.67 455.734 177.536C456.007 180.068 456.464 182.512 457 185C457.66 185 458.32 185 459 185C459 185.66 459 186.32 459 187C458.34 187.33 457.68 187.66 457 188C457.011 189.251 457.023 190.503 457.035 191.792C457.119 205.163 456.68 218.461 456 231.812C455.903 233.788 455.806 235.764 455.711 237.74C455.479 242.494 455.241 247.247 455 252C455.33 247.71 455.66 243.42 456 239C457.32 239 458.64 239 460 239C460.66 237.35 461.32 235.7 462 234C463.155 234.045 464.31 234.09 465.5 234.137C469.974 234.132 473.772 233.206 478 231.812C478.695 231.59 479.391 231.367 480.107 231.138C485.551 229.319 490.859 227.14 495 223C495.425 219.947 495.466 217.049 495 214C493.165 211.614 493.165 211.614 490 211C483.339 211.028 477.632 213.01 471.562 215.562C469.981 216.212 468.399 216.86 466.816 217.504C465.786 217.934 465.786 217.934 464.736 218.373C463 219 463 219 461 219C460.67 219.99 460.34 220.98 460 222C456.573 203.37 456.573 203.37 459.929 196.086C464.475 191.506 471.82 190.704 477.957 189.43C479.356 189.135 480.75 188.81 482.136 188.458C489.081 186.751 496.628 187.931 503 191C510.645 196.383 516.753 202.767 518.621 212.105C519.649 221.152 518.591 228.659 513.312 236.188C503.817 247.73 492.013 251.972 477.999 256.277C476.036 256.883 474.08 257.507 472.123 258.133C470.877 258.52 469.631 258.906 468.347 259.305C467.223 259.655 466.099 260.006 464.941 260.367C462.063 260.986 460.653 261.218 458 260C457.34 259.01 456.68 258.02 456 257C455.34 257 454.68 257 454 257C453.752 258.309 453.752 258.309 453.5 259.645C449.665 279.688 444.986 299.133 438.715 318.559C437.906 320.896 437.906 320.896 438 323C438.66 323 439.32 323 440 323C440.33 323.99 440.66 324.98 441 326C441.242 325.29 441.484 324.579 441.734 323.848C442.237 322.469 442.237 322.469 442.75 321.062C443.074 320.146 443.399 319.229 443.734 318.285C445 316 445 316 446.722 315.004C454.16 314.991 462.899 321.436 468.125 326.375C474.639 333.543 477.355 341.296 477 351C475.316 360.579 470.408 367.822 463 374C454.831 379.156 446.668 379.945 437.25 378.375C431.221 376.709 425.608 373.719 420 371C421.289 368.395 422.581 365.791 423.875 363.188C424.239 362.45 424.604 361.712 424.98 360.951C425.512 359.883 425.512 359.883 426.054 358.793C426.379 358.138 426.704 357.484 427.038 356.809C428 355 428 355 430 352C436.625 352.75 436.625 352.75 440 355C442.411 355.317 442.411 355.317 445 355.25C446.299 355.258 446.299 355.258 447.625 355.266C450.265 355.154 450.265 355.154 453 353C454.177 349.676 454.177 349.676 454 346C450.241 340.496 443.808 337.96 438 335C438 333.35 438 331.7 438 330C437.34 330 436.68 330 436 330C435.67 329.34 435.34 328.68 435 328C434.714 328.638 434.427 329.276 434.133 329.933C419.985 361.389 403.81 388.94 380.347 414.434C378.296 416.676 376.295 418.948 374.312 421.25C368.677 427.715 362.502 433.424 356 439C354.945 439.919 353.89 440.838 352.836 441.758C340.74 452.27 328.165 461.823 314.855 470.746C313.14 471.905 311.444 473.094 309.75 474.285C308.801 474.934 307.852 475.582 306.875 476.25C306.068 476.812 305.261 477.374 304.429 477.953C301.059 479.405 299.507 479.089 296 478C293.13 476.467 290.483 474.666 287.812 472.812C287.035 472.283 286.259 471.753 285.459 471.208C272.752 462.475 260.211 453.614 249 443C247.672 441.827 246.339 440.66 245 439.5C232.71 428.762 221.111 417.857 211 405C210.093 403.872 209.185 402.744 208.277 401.617C203.212 395.3 198.423 388.908 194.023 382.102C192.583 379.894 191.122 377.736 189.601 375.586C184.253 367.948 179.979 360.201 176.124 351.708C174.21 347.5 172.231 343.563 169.687 339.688C166.815 335.093 165.541 330.48 164.187 325.258C163.058 321.021 161.617 316.913 160.174 312.775C150.164 283.92 144.504 253.564 144 223C143.979 222.093 143.959 221.187 143.938 220.252C143.512 199.465 144.797 178.743 146 158C148.84 156.58 151.523 156.554 154.683 156.238C156.086 156.092 157.489 155.945 158.891 155.796C159.632 155.718 160.372 155.64 161.135 155.56C197.503 151.649 231.539 142.062 264 125C264.715 124.626 265.431 124.253 266.168 123.868C281.878 115.584 281.878 115.584 295.553 104.372C297 103 297 103 299.449 102.633ZM291.562 144.375C270.13 157.15 247.932 167.793 224 175C222.983 175.312 221.967 175.623 220.92 175.944C211.962 178.61 202.99 180.5 193.812 182.188C191.725 182.576 189.639 182.967 187.553 183.36C185.691 183.71 183.827 184.055 181.964 184.399C178.961 184.945 178.961 184.945 176 186C172.046 233.866 179.632 283.077 198.625 327.25C199.165 328.547 199.165 328.547 199.716 329.87C201.614 334.34 201.614 334.34 205.304 337.219C209 336.919 212.132 335.704 215.5 334.25C216.151 333.984 216.802 333.719 217.472 333.445C221.178 331.903 224.617 330.159 228 328C227.458 326.944 227.458 326.944 226.906 325.867C223.148 317.871 221.646 310.813 223 302C224.308 298.684 226.019 295.942 228 293C228.33 292.01 228.66 291.02 229 290C230.687 289.004 230.687 289.004 233 288C233.948 287.514 234.897 287.028 235.875 286.527C236.906 286.003 237.937 285.478 239 284.938C240.031 284.41 241.062 283.883 242.125 283.34C247.694 280.744 252.907 280.471 259 281C261.764 282.146 263.638 283.706 265.945 285.582C274.503 292.426 283.172 296.179 293.496 299.754C297.697 301.248 301.785 302.95 305.89 304.688C315.667 308.814 325.514 312.615 335.541 316.084C340.825 317.912 340.825 317.912 343 319C347.498 319.519 349.495 319.318 353.375 316.875C356.292 313.68 357.089 312.295 357 308C355.862 305.673 354.831 303.832 353 302C345.55 300.831 340.932 304.046 334.855 307.957C329.767 309.333 327.83 308.006 323.277 305.654C319.515 303.755 315.686 302.22 311.761 300.695C310.266 300.106 308.77 299.516 307.275 298.926C304.986 298.026 302.696 297.129 300.405 296.235C272.157 285.198 272.157 285.198 268 280C267.406 277.494 267.121 275.029 266.82 272.473C265.645 268.931 264.154 268.009 261 266C257.663 264.407 254.253 263.039 250.812 261.688C249.84 261.301 248.869 260.914 247.868 260.516C245.875 259.724 243.882 258.936 241.887 258.15C239.211 257.084 236.555 255.981 233.902 254.859C222.822 249.817 222.822 249.817 211 250C208.9 251.552 208.103 252.377 207.671 254.973C207.73 259.119 207.73 259.119 209 263C209.99 263 210.98 263 212 263C212.33 263.99 212.66 264.98 213 266C215.669 267.38 215.669 267.38 218.937 268.5C220.105 268.927 221.273 269.353 222.476 269.793C226.95 271.325 231.443 272.735 236 274C232.061 278.482 227.504 281.35 222.425 284.449C219.942 285.915 219.942 285.915 218 288C210.398 288 202.721 284.713 197.3 279.305C196.656 278.659 196.656 278.659 196 278C195.34 278 194.68 278 194 278C193.712 277.423 193.425 276.845 193.129 276.25C192.416 274.829 191.695 273.412 190.964 272C190.625 271.34 190.286 270.68 189.937 270C189.425 269.01 189.425 269.01 188.902 268C185.641 260.772 186.676 253.619 189.097 246.32C191.68 239.678 195.942 235.534 202 232C214.408 226.665 224.604 229.313 236.796 234.098C238.707 234.894 240.611 235.703 242.511 236.523C246.071 238.03 249.659 239.443 253.26 240.848C257.524 242.523 261.763 244.258 266 246C266.711 246.286 267.422 246.572 268.155 246.867C279.025 251.314 283.719 256.935 288.625 267.5C291.082 271.968 296.066 273.605 300.562 275.688C301.492 276.124 302.421 276.561 303.379 277.012C306.157 278.235 306.157 278.235 310 278C310.219 277.117 310.438 276.234 310.664 275.324C315.777 255.973 315.777 255.973 322.89 250.965C327.102 248.616 331.541 246.821 336 245C337.143 244.524 338.287 244.047 339.466 243.556C382.38 225.701 382.38 225.701 396.312 230.562C403.772 233.993 408.716 239.636 412.109 247.066C414.529 255.038 414.292 263.393 410.687 270.938C405.746 278.769 396.158 285.904 387 288C381.441 287.801 378.333 285.433 374.187 282.062C373.603 281.607 373.018 281.151 372.416 280.682C368.154 277.309 368.154 277.309 367 275C367.917 274.613 368.835 274.227 369.781 273.828C381.915 269.451 381.915 269.451 392 262C393.064 258.501 393.263 256.682 391.937 253.25C389.341 250.236 387.96 249.576 384 249C380.516 249.584 377.307 250.782 374 252C373.392 252.218 372.785 252.435 372.159 252.659C364.519 255.397 357.015 258.306 349.675 261.781C345.67 263.606 341.552 265.143 337.433 266.691C334.953 267.807 334.953 267.807 333.668 269.762C332.8 272.668 332.809 275.221 332.875 278.25C332.893 279.328 332.911 280.405 332.929 281.516C332.952 282.335 332.976 283.155 333 284C334.216 283.67 335.433 283.34 336.687 283C345.16 281.142 355.361 280.205 363 285C369.724 290.128 375.271 295.238 377.75 303.5C378.434 310.342 377.48 315.093 374.972 321.449C374.141 323.63 373.506 325.726 373 328C377.209 330.674 381.576 332.737 386.125 334.75C387.198 335.243 387.198 335.243 388.293 335.746C392.523 337.759 392.523 337.759 397 337C398.117 335.419 398.117 335.419 398.98 333.406C399.513 332.252 399.513 332.252 400.057 331.074C400.43 330.225 400.803 329.375 401.187 328.5C401.58 327.61 401.973 326.72 402.378 325.803C421.698 280.819 424.827 234.214 424 186C420.823 185.361 417.646 184.723 414.468 184.086C413.577 183.907 412.686 183.727 411.768 183.543C406.686 182.524 401.599 181.551 396.5 180.625C363.039 173.832 331.856 159.055 303.011 141.145C298.592 138.63 295.417 142.032 291.562 144.375ZM245.125 303.062C243.384 306.06 243.118 308.555 243 312C244.588 315.574 245.716 316.811 249 319C255.6 320.14 261.34 318.398 267 315C268.015 314.015 269.017 313.017 270 312C267.49 310.313 264.97 308.651 262.437 307C261.733 306.523 261.028 306.046 260.302 305.555C255.523 302.471 250.646 299.934 245.125 303.062ZM291.75 327.688C291.031 327.959 290.312 328.23 289.572 328.509C287.38 329.337 285.19 330.168 283 331C281.776 331.464 280.553 331.928 279.293 332.406C272.834 334.867 272.834 334.867 266.5 337.625C263.163 338.936 260.06 339.688 256.562 340.438C252.042 341.432 248.367 342.6 244.347 344.836C241.042 346.475 237.588 347.682 234.125 348.938C227.852 351.225 221.877 353.807 216 357C216.507 361.686 218.64 364.807 221.375 368.5C221.818 369.109 222.261 369.719 222.718 370.347C226.692 375.736 230.963 380.845 235.343 385.906C237.825 388.775 240.197 391.722 242.562 394.688C249.269 402.915 256.889 410.174 265 417C265.951 417.806 266.902 418.611 267.882 419.441C275.194 425.614 275.194 425.614 282.804 431.41C284.607 432.716 286.375 434.068 288.132 435.434C289.275 436.29 290.418 437.146 291.562 438C292.092 438.423 292.623 438.846 293.169 439.281C296.255 441.533 297.68 442.044 301.504 441.516C308.009 438.695 313.411 434.292 319 430C319.626 429.526 320.252 429.052 320.898 428.564C330.971 420.874 340.041 412.247 349 403.312C349.53 402.785 350.061 402.258 350.608 401.715C360.318 392.04 368.94 381.723 377 370.625C377.571 369.858 378.142 369.091 378.73 368.301C379.544 367.181 379.544 367.181 380.375 366.039C380.857 365.381 381.339 364.723 381.836 364.045C383.165 361.71 383.604 359.644 384 357C383.447 356.764 382.895 356.528 382.326 356.285C380.666 355.575 379.005 354.865 377.346 354.155C375.433 353.337 373.519 352.52 371.605 351.705C367.225 349.834 362.856 347.953 358.535 345.949C357.858 345.639 357.181 345.329 356.484 345.01C354.694 344.186 352.911 343.347 351.129 342.508C347.69 341.09 344.258 340.42 340.609 339.723C331.882 337.951 323.903 334.681 315.687 331.312C313.439 330.403 311.189 329.496 308.939 328.591C307.553 328.032 306.168 327.47 304.785 326.905C299.212 324.636 297.277 325.593 291.75 327.688Z" fill="#0F0F10"/>
<path d="M309 110C313.025 111.46 316.445 113.406 320.062 115.688C321.223 116.41 322.385 117.131 323.547 117.852C324.698 118.568 325.849 119.284 327 120C335.328 125.178 343.813 129.269 352.828 133.059C355.345 134.149 357.826 135.308 360.312 136.465C386.666 148.472 416.098 153.947 444.827 156.224C445.727 156.298 446.627 156.373 447.555 156.449C448.361 156.508 449.168 156.567 450 156.628C452 157 452 157 454 159C454.395 161.075 454.395 161.075 454.598 163.613C454.717 164.991 454.717 164.991 454.838 166.396C454.949 167.84 454.949 167.84 455.062 169.312C455.218 171.205 455.375 173.097 455.535 174.988C455.601 175.829 455.667 176.67 455.735 177.536C456.007 180.068 456.464 182.512 457 185C457.66 185 458.32 185 459 185C459 185.66 459 186.32 459 187C458.01 187.495 458.01 187.495 457 188C457.012 189.251 457.023 190.503 457.035 191.792C457.12 205.163 456.68 218.461 456 231.812C455.903 233.788 455.807 235.764 455.711 237.74C455.479 242.494 455.241 247.247 455 252C455.33 247.71 455.66 243.42 456 239C457.32 239 458.64 239 460 239C460.66 237.35 461.32 235.7 462 234C463.155 234.045 464.31 234.09 465.5 234.137C469.975 234.132 473.772 233.206 478 231.812C479.043 231.478 479.043 231.478 480.108 231.138C485.552 229.319 490.86 227.14 495 223C495.426 219.947 495.466 217.049 495 214C493.166 211.614 493.166 211.614 490 211C483.339 211.028 477.632 213.01 471.562 215.562C469.982 216.212 468.4 216.86 466.816 217.504C465.787 217.934 465.787 217.934 464.737 218.373C463 219 463 219 461 219C460.67 219.99 460.34 220.98 460 222C456.574 203.37 456.574 203.37 459.93 196.086C464.475 191.506 471.82 190.704 477.957 189.43C479.357 189.135 480.75 188.81 482.136 188.458C489.081 186.751 496.628 187.931 503 191C510.645 196.383 516.753 202.767 518.621 212.105C519.65 221.152 518.591 228.659 513.312 236.188C503.818 247.73 492.014 251.972 478 256.277C476.037 256.883 474.08 257.507 472.123 258.133C470.877 258.52 469.631 258.906 468.348 259.305C467.224 259.655 466.1 260.006 464.942 260.367C462.063 260.986 460.654 261.218 458 260C457.34 259.01 456.68 258.02 456 257C455.34 257 454.68 257 454 257C453.753 258.309 453.753 258.309 453.5 259.645C449.666 279.688 444.986 299.133 438.715 318.559C437.906 320.896 437.906 320.896 438 323C438.66 323 439.32 323 440 323C440.33 323.99 440.66 324.98 441 326C441.364 324.935 441.364 324.935 441.734 323.848C442.07 322.929 442.405 322.009 442.75 321.062C443.075 320.146 443.4 319.229 443.734 318.285C445 316 445 316 446.723 315.004C454.16 314.991 462.899 321.436 468.125 326.375C474.639 333.543 477.355 341.296 477 351C475.316 360.579 470.408 367.822 463 374C454.832 379.156 446.669 379.945 437.25 378.375C431.221 376.709 425.608 373.719 420 371C421.289 368.395 422.581 365.791 423.875 363.188C424.24 362.45 424.605 361.712 424.98 360.951C425.335 360.239 425.689 359.527 426.055 358.793C426.379 358.138 426.704 357.484 427.039 356.809C428 355 428 355 430 352C436.625 352.75 436.625 352.75 440 355C442.412 355.317 442.412 355.317 445 355.25C445.866 355.255 446.733 355.26 447.625 355.266C450.266 355.154 450.266 355.154 453 353C454.178 349.676 454.178 349.676 454 346C450.241 340.496 443.808 337.96 438 335C438 333.35 438 331.7 438 330C437.34 330 436.68 330 436 330C435.67 329.34 435.34 328.68 435 328C434.714 328.638 434.428 329.276 434.133 329.933C429.286 340.709 424.443 351.478 418.938 361.938C418.568 362.646 418.199 363.354 417.819 364.084C415.252 368.874 415.252 368.874 413 370C414.363 365.096 416.572 360.907 418.986 356.465C443.832 310.738 453.885 259.921 453.312 208.25C453.302 206.225 453.295 204.199 453.289 202.174C453.247 188.09 453.016 174.05 452 160C448.599 159.079 445.27 158.708 441.759 158.406C413.615 155.96 386.016 150.187 360 139C358.846 138.518 358.846 138.518 357.669 138.025C347.363 133.703 337.493 128.79 327.75 123.312C326.798 122.778 325.846 122.244 324.865 121.693C319.314 118.511 313.852 115.202 309 111C309 110.67 309 110.34 309 110Z" fill="#111111"/>
<path d="M137 194C139 195 139 195 140.125 197.938C141.879 204.702 141.723 211.535 139 218C134.87 217.415 131.218 216.45 127.313 215C120.835 212.779 113.682 210.773 107 213C104.644 215.886 104.644 215.886 105.188 219.5C106.129 223.557 107.229 224.864 110.656 227.063C118.75 231.178 127.062 233.191 136.102 233.79C138 234 138 234 139 235C139.407 237.856 139.756 240.696 140.063 243.563C140.154 244.35 140.244 245.137 140.338 245.948C140.892 250.997 141.087 255.921 141 261C137.628 261 135.878 260.797 132.805 259.793C131.615 259.411 131.615 259.411 130.401 259.02C129.567 258.745 128.734 258.471 127.875 258.188C126.154 257.629 124.433 257.07 122.711 256.512C121.891 256.246 121.071 255.979 120.226 255.705C117.669 254.896 115.091 254.192 112.5 253.5C102.461 250.48 91.9955 244.433 86.3674 235.372C82.018 226.834 80.4391 218.734 82.6487 209.204C85.4146 201.591 89.9568 195.304 97.2502 191.563C110.399 185.699 124.088 189.411 137 194Z" fill="#121212"/>
<path d="M155 315C156.175 317.747 157.34 320.497 158.5 323.25C158.834 324.027 159.168 324.805 159.512 325.605C159.985 326.737 159.985 326.737 160.469 327.891C160.762 328.582 161.055 329.273 161.357 329.985C162 332 162 332 162 336C161.168 336.315 160.337 336.629 159.48 336.953C158.394 337.381 157.307 337.809 156.187 338.25C155.108 338.668 154.029 339.085 152.918 339.516C149.905 341.048 148.642 342.088 147 345C146.584 348.326 146.56 350.23 148.234 353.16C149.842 355.172 149.842 355.172 152.164 355.496C158.259 355.351 163.347 354.294 169 352C173.303 356.781 177.811 363.228 178.14 369.812C178.094 370.534 178.048 371.256 178 372C175.773 372.985 173.544 373.963 171.312 374.938C170.374 375.354 170.374 375.354 169.416 375.779C160.845 379.504 151.868 380.491 143 377C135.259 372.873 128.268 367.097 125.472 358.492C123.444 347.795 124.626 338.423 130.109 329.117C134.993 322.394 146.768 315 155 315Z" fill="#171717"/>
<path d="M446 317C455.373 318.476 464.178 323.508 470 331C474 336.899 474 336.899 474 340C474.66 340 475.32 340 476 340C477.443 349.142 476.731 356.026 472.25 364.188C466.653 371.183 461.242 376.079 452.562 378.75C440.076 379.968 431.154 376.407 420 371C421.289 368.395 422.581 365.791 423.875 363.188C424.24 362.45 424.605 361.712 424.98 360.951C425.335 360.239 425.689 359.527 426.055 358.793C426.379 358.138 426.704 357.484 427.039 356.809C428 355 428 355 430 352C436.625 352.75 436.625 352.75 440 355C442.412 355.317 442.412 355.317 445 355.25C446.299 355.258 446.299 355.258 447.625 355.266C450.266 355.154 450.266 355.154 453 353C454.178 349.676 454.178 349.676 454 346C451.416 342.415 448.696 340.797 444.75 339.062C441.153 337.363 441.153 337.363 439.812 334.188C440.046 330.212 441.247 327.569 443 324C443.57 322.691 444.133 321.378 444.688 320.062C445.121 319.052 445.554 318.041 446 317Z" fill="#131313"/>
<path d="M309 110C313.025 111.46 316.445 113.406 320.062 115.688C321.223 116.41 322.385 117.131 323.547 117.852C324.698 118.568 325.849 119.284 327 120C335.328 125.178 343.813 129.269 352.828 133.059C355.345 134.149 357.826 135.308 360.312 136.465C386.666 148.472 416.098 153.947 444.827 156.224C445.727 156.298 446.627 156.373 447.555 156.449C448.361 156.508 449.168 156.567 450 156.628C452 157 452 157 454 159C454.395 161.075 454.395 161.075 454.598 163.613C454.717 164.991 454.717 164.991 454.838 166.396C454.949 167.84 454.949 167.84 455.062 169.312C455.218 171.205 455.375 173.097 455.535 174.988C455.601 175.829 455.667 176.67 455.735 177.536C456.007 180.068 456.464 182.512 457 185C457.66 185 458.32 185 459 185C459 185.66 459 186.32 459 187C458.01 187.495 458.01 187.495 457 188C457.012 189.251 457.023 190.503 457.035 191.792C457.12 205.163 456.68 218.461 456 231.812C455.903 233.788 455.807 235.764 455.711 237.74C455.479 242.494 455.241 247.247 455 252C455.33 247.71 455.66 243.42 456 239C457.32 239 458.64 239 460 239C460.66 237.35 461.32 235.7 462 234C463.155 234.045 464.31 234.09 465.5 234.137C469.975 234.132 473.772 233.206 478 231.812C478.696 231.59 479.393 231.367 480.11 231.138C485.287 229.409 489.553 227.202 494 224C494.66 223.67 495.32 223.34 496 223C494.949 226.127 493.97 227.019 491.129 228.816C481.839 233.365 473.534 237 463 237C462.34 244.26 461.68 251.52 461 259C462.836 258.381 464.671 257.762 466.562 257.125C479.923 252.692 479.923 252.692 485 253C480.943 255.705 476.705 256.791 472.062 258.188C471.156 258.473 470.249 258.759 469.314 259.053C468.439 259.318 467.563 259.583 466.66 259.855C465.862 260.099 465.064 260.343 464.242 260.594C461.737 261.048 460.348 260.972 458 260C457.34 259.01 456.68 258.02 456 257C455.34 257 454.68 257 454 257C453.753 258.309 453.753 258.309 453.5 259.645C449.666 279.688 444.986 299.133 438.715 318.559C437.906 320.896 437.906 320.896 438 323C438.66 323 439.32 323 440 323C440.33 323.99 440.66 324.98 441 326C441.364 324.935 441.364 324.935 441.734 323.848C442.07 322.929 442.405 322.009 442.75 321.062C443.075 320.146 443.4 319.229 443.734 318.285C445 316 445 316 446.723 315.004C454.27 314.991 462.968 321.507 468.188 326.562C471.134 329.784 473.6 332.8 475 337C474.67 337.99 474.34 338.98 474 340C473.66 339.359 473.319 338.719 472.969 338.059C466.329 326.209 458.268 321.704 446 317C445.807 317.759 445.613 318.519 445.414 319.301C445.154 320.295 444.893 321.289 444.625 322.312C444.37 323.299 444.115 324.285 443.852 325.301C443 328 443 328 441 331C440.833 333.625 440.833 333.625 441 336C440.01 335.67 439.02 335.34 438 335C438 333.35 438 331.7 438 330C437.34 330 436.68 330 436 330C435.67 329.34 435.34 328.68 435 328C434.714 328.638 434.428 329.276 434.133 329.933C429.286 340.709 424.443 351.478 418.938 361.938C418.568 362.646 418.199 363.354 417.819 364.084C415.252 368.874 415.252 368.874 413 370C414.363 365.096 416.572 360.907 418.986 356.465C443.832 310.738 453.885 259.921 453.312 208.25C453.302 206.225 453.295 204.199 453.289 202.174C453.247 188.09 453.016 174.05 452 160C448.599 159.079 445.27 158.708 441.759 158.406C413.615 155.96 386.016 150.187 360 139C358.846 138.518 358.846 138.518 357.669 138.025C347.363 133.703 337.493 128.79 327.75 123.312C326.798 122.778 325.846 122.244 324.865 121.693C319.314 118.511 313.852 115.202 309 111C309 110.67 309 110.34 309 110Z" fill="#D4D4D4"/>
<path d="M452 249C452.33 249 452.66 249 453 249C453.276 257.352 452.591 265.067 450.938 273.25C450.609 274.921 450.609 274.921 450.274 276.625C448.272 286.416 445.591 295.949 442.648 305.492C440.873 311.273 439.415 317.122 438 323C438.66 323 439.32 323 440 323C440.33 323.99 440.66 324.98 441 326C441.242 325.29 441.485 324.579 441.734 323.848C442.07 322.929 442.405 322.009 442.75 321.062C443.075 320.146 443.4 319.229 443.734 318.285C445 316 445 316 446.723 315.004C454.27 314.991 462.968 321.507 468.188 326.562C471.134 329.784 473.6 332.8 475 337C474.505 338.485 474.505 338.485 474 340C473.66 339.359 473.319 338.719 472.969 338.059C466.329 326.209 458.268 321.704 446 317C445.807 317.759 445.613 318.519 445.414 319.301C445.154 320.295 444.893 321.289 444.625 322.312C444.37 323.299 444.115 324.285 443.852 325.301C443 328 443 328 441 331C440.833 333.625 440.833 333.625 441 336C439.515 335.505 439.515 335.505 438 335C438 333.35 438 331.7 438 330C437.34 330 436.68 330 436 330C435.505 329.01 435.505 329.01 435 328C434.714 328.638 434.428 329.276 434.133 329.933C429.286 340.709 424.443 351.478 418.938 361.938C418.568 362.646 418.199 363.354 417.819 364.084C415.252 368.874 415.252 368.874 413 370C414.363 365.096 416.572 360.907 418.986 356.465C437.042 323.233 447.468 286.453 452 249Z" fill="#D3D3D3"/>
<path d="M378 354C380.763 354.523 383.326 355.109 386 356C385.523 361.146 382.904 364.533 380 368.625C379.503 369.334 379.006 370.044 378.494 370.774C368.319 385.151 356.306 397.77 343.938 410.25C342.697 411.51 342.697 411.51 341.432 412.795C332.991 421.247 323.687 428.335 314.062 435.375C313.227 435.99 312.391 436.605 311.529 437.238C302.313 444.004 302.313 444.004 299.281 443.961C294.92 442.684 292.03 440.42 288.5 437.625C287.806 437.088 287.112 436.552 286.396 435.999C284.961 434.887 283.529 433.77 282.102 432.647C280.121 431.095 278.127 429.564 276.125 428.039C270.351 423.614 264.84 419.116 259.805 413.844C257.263 411.247 254.519 408.911 251.766 406.543C249.751 404.782 247.853 402.93 246 401C246.33 400.34 246.66 399.68 247 399C247.944 399.961 247.944 399.961 248.906 400.941C254.1 406.19 259.351 411.246 265 416C265.951 416.806 266.903 417.611 267.883 418.441C275.195 424.614 275.195 424.614 282.805 430.41C284.607 431.716 286.375 433.068 288.133 434.434C289.275 435.29 290.418 436.146 291.562 437C292.093 437.423 292.623 437.846 293.17 438.281C296.255 440.533 297.681 441.044 301.504 440.516C308.009 437.696 313.413 433.293 319 429C319.632 428.521 320.263 428.042 320.914 427.548C330.782 419.992 339.712 411.575 348.5 402.812C349.007 402.309 349.513 401.806 350.036 401.288C359.592 391.768 368.055 381.571 375.938 370.625C376.5 369.858 377.063 369.091 377.643 368.301C380.275 364.659 382.627 361.333 384 357C382.02 356.34 380.04 355.68 378 355C378 354.67 378 354.34 378 354Z" fill="#DADADA"/>
<path d="M261.562 281.063C263.029 282.228 264.492 283.4 265.945 284.582C274.504 291.426 283.172 295.179 293.496 298.754C297.698 300.248 301.785 301.95 305.891 303.688C315.667 307.814 325.515 311.615 335.542 315.084C340.825 316.913 340.825 316.913 343 318C347.024 318.38 349.322 318.383 352.875 316.375C355.5 313.441 356 311.926 356 308C354.676 304.682 354.676 304.682 353 302C356.875 303.75 356.875 303.75 358 306C358.374 310.961 358.239 314.113 355 318C350.908 320.923 347.816 321.292 342.882 320.651C336.297 319.163 330.091 316.275 323.875 313.688C320.753 312.406 317.628 311.131 314.504 309.856C313.715 309.532 312.926 309.209 312.113 308.876C306.801 306.707 301.461 304.629 296.09 302.613C295.385 302.348 294.681 302.082 293.955 301.808C289.91 300.283 289.91 300.283 285.855 298.783C277.305 295.648 269.425 292.634 263.875 285.125C258.815 281.385 253.033 282.197 247 283C241.206 284.712 236.234 286.638 232 291C231.34 291 230.68 291 230 291C229.732 291.598 229.464 292.196 229.188 292.813C228.015 294.972 226.806 296.358 225 298C227.35 290.524 233.342 286.498 240 283C246.728 279.952 254.5 278.134 261.562 281.063Z" fill="#D2D2D2"/>
<path d="M242.504 235.52C245.25 236.683 248.002 237.799 250.777 238.887C260.086 242.539 269.178 246.266 278 251C277.34 251.33 276.68 251.66 276 252C273.618 251.171 271.348 250.276 269.035 249.282C268.334 248.988 267.634 248.694 266.912 248.392C265.407 247.761 263.905 247.127 262.403 246.49C258.513 244.845 254.609 243.234 250.707 241.618C249.186 240.986 247.664 240.354 246.143 239.722C245.432 239.427 244.721 239.132 243.989 238.827C242.245 238.102 240.502 237.374 238.759 236.646C227.483 231.977 216.811 228.292 204.563 232.125C197.221 235.505 192.945 240.575 190 248C187.772 254.684 187.72 263.342 190.813 269.75C192.792 273.137 192.792 273.137 196 275C196 275.99 196 276.98 196 278C195.34 278 194.68 278 194 278C188.618 271.551 185.498 264.704 185.746 256.176C186.848 246.737 190.728 239.349 198.067 233.321C212.497 223.467 227.996 229.258 242.504 235.52Z" fill="#C6C6C6"/>
<path d="M503 191C505.272 192.518 507.032 194.084 509 196C505.493 196 503.739 194.797 500.817 192.973C492.874 188.719 482.45 190.391 474.146 192.722C470.75 193.77 467.378 194.893 464 196C463.67 202.6 463.34 209.2 463 216C467.432 214.322 467.432 214.322 471.855 212.619C475.39 211.318 477.437 210.877 481 212C478.044 213.172 475.085 214.337 472.125 215.5C471.284 215.834 470.442 216.168 469.575 216.512C468.769 216.828 467.963 217.144 467.133 217.469C466.018 217.909 466.018 217.909 464.88 218.358C463 219 463 219 461 219C460.505 220.485 460.505 220.485 460 222C456.574 203.37 456.574 203.37 459.93 196.086C464.475 191.507 471.821 190.704 477.957 189.43C479.357 189.136 480.75 188.81 482.137 188.458C489.173 186.729 496.456 188.165 503 191Z" fill="#C4C4C4"/>
<path d="M204 181C199.896 181.838 195.792 182.67 191.687 183.5C190.52 183.739 189.353 183.977 188.15 184.223C187.032 184.448 185.913 184.674 184.761 184.906C183.73 185.116 182.698 185.325 181.635 185.541C179 186 179 186 176 186C175.715 209.474 175.676 232.945 179.632 256.168C180.06 259.467 180.057 262.677 180 266C179.67 266 179.34 266 179 266C178.532 263.71 178.075 261.419 177.625 259.125C177.369 257.849 177.114 256.573 176.851 255.258C174.298 240.363 173.703 225.708 173.794 210.617C173.812 207.383 173.814 204.15 173.814 200.916C173.819 198.86 173.825 196.803 173.832 194.746C173.833 193.78 173.834 192.813 173.835 191.818C173.841 190.935 173.848 190.052 173.854 189.143C173.858 188.364 173.862 187.586 173.866 186.784C174 185 174 185 175 184C179.075 183.137 183.2 182.534 187.312 181.875C188.466 181.681 189.621 181.486 190.81 181.285C191.921 181.106 193.031 180.927 194.175 180.742C195.195 180.576 196.215 180.409 197.266 180.238C199.852 180.013 201.561 180.186 204 181Z" fill="#D7D7D7"/>
<path d="M118 210C121.091 210.802 124.042 211.799 127 213C123.257 214.192 120.925 213.461 117.164 212.425C113.5 211.705 110.641 212.184 107 213C104.644 215.886 104.644 215.886 105.188 219.5C106.129 223.556 107.229 224.863 110.656 227.062C118.75 231.178 127.062 233.19 136.102 233.789C138 234 138 234 139 235C139.407 237.856 139.756 240.695 140.062 243.562C140.153 244.349 140.244 245.136 140.338 245.947C140.892 250.997 141.087 255.92 141 261C139.68 261 138.36 261 137 261C137.99 260.67 138.98 260.34 140 260C139.856 259.44 139.711 258.881 139.562 258.304C137.833 250.835 137.802 243.64 138 236C137.38 236.058 136.76 236.116 136.121 236.175C125.298 236.727 114.726 233.451 106 227C103.619 224.064 103.037 222.26 102.5 218.5C103 215 103 215 104.875 212.062C109.31 209.135 112.828 209.267 118 210Z" fill="#E2E2E2"/>
<path d="M148 258C148.33 258 148.66 258 149 258C149.115 258.657 149.23 259.313 149.348 259.99C154.763 290.529 162.819 320.688 176.918 348.473C177.275 349.307 177.632 350.141 178 351C177.67 351.66 177.34 352.32 177 353C176.529 352.12 176.059 351.239 175.574 350.332C174.952 349.171 174.329 348.009 173.688 346.812C173.073 345.664 172.458 344.515 171.824 343.332C170.731 341.335 169.594 339.36 168.375 337.438C166.835 334.707 166.095 332.223 165.312 329.188C163.802 323.624 162.061 318.204 160.167 312.76C156.804 303.046 153.902 293.325 151.562 283.312C151.192 281.756 151.192 281.756 150.815 280.169C149.161 272.801 148.402 265.536 148 258Z" fill="#CECECE"/>
<path d="M155 315C156.175 317.747 157.34 320.497 158.5 323.25C158.834 324.027 159.167 324.805 159.511 325.605C159.985 326.737 159.985 326.737 160.469 327.891C160.762 328.582 161.055 329.273 161.357 329.985C162 332 162 332 162 336C157.375 338.125 157.375 338.125 154 337C155.98 336.34 157.96 335.68 160 335C157.03 326.585 157.03 326.585 154 318C148.836 318.861 146.982 319.305 142.875 321.938C138.139 324.94 138.139 324.94 135.82 325.941C133.486 327.299 133.019 328.531 132 331C131.658 331.672 131.317 332.343 130.965 333.035C130.626 333.704 130.287 334.373 129.937 335.062C129.596 335.734 129.254 336.406 128.902 337.098C125.943 343.337 125.976 350.937 127.648 357.574C129.978 363.279 133.743 367.612 138 372C135 372 135 372 133.281 370.531C125.937 362.156 124.396 355.91 124.652 344.695C125.332 337.474 127.946 331.106 132.883 325.734C138.71 320.961 147.466 315 155 315Z" fill="#D3D3D3"/>
<path d="M360 284C366.105 285.036 370.155 290.105 374.312 294.375C377.951 300.035 379.811 306.277 379 313C378.093 315.865 377.076 318.654 375.973 321.449C375.141 323.63 374.506 325.726 374 328C376.351 329.132 378.706 330.255 381.062 331.375C382.048 331.851 382.048 331.851 383.053 332.336C387.308 334.348 391.44 335.826 396 337C396.99 335.02 397.98 333.04 399 331C399.33 331.99 399.66 332.98 400 334C398.562 336.688 398.562 336.688 397 339C391.275 338.401 386.471 336.273 381.25 334C380.388 333.631 379.525 333.263 378.637 332.883C372.52 330.26 372.52 330.26 370 329C370.435 326.565 370.917 325.108 372.438 323.125C376.624 317.431 376.747 310.803 376 304C373.612 294.976 367.214 289.465 360 284Z" fill="#D2D2D2"/>
<path d="M104 189C116.189 188.261 127.892 189.446 139 195C141.886 202.535 142.161 210.492 139 218C134.805 217.4 130.99 216.425 127 215C130 214 130 214 137 215C137 208.73 137 202.46 137 196C134.31 195.26 131.62 194.522 128.926 193.796C126.672 193.183 124.428 192.536 122.188 191.875C116.268 190.386 110.07 190.324 104 190C104 189.67 104 189.34 104 189Z" fill="#CDCDCD"/>
<path d="M299.188 102.5C303.472 103.262 305.94 106.037 309 109C305.092 109 303.884 107.494 301 105C297.136 106.366 294.248 108.14 291 110.625C281.172 117.879 270.786 123.75 260 129.438C258.996 129.97 257.992 130.503 256.958 131.052C256.002 131.549 255.047 132.046 254.062 132.559C253.208 133.005 252.353 133.452 251.473 133.912C248.974 135.011 246.689 135.572 244 136C245.36 133.281 246.811 132.994 249.566 131.75C250.996 131.092 250.996 131.092 252.454 130.421C253.48 129.952 254.506 129.483 255.562 129C268.566 122.917 286.175 105.474 299.188 102.5Z" fill="#D9D9D9"/>
<path d="M451 341C454.875 342.75 454.875 342.75 456 345C456.394 349.181 456.45 351.309 454.125 354.875C451.152 357.848 450.392 357.969 446.062 358.312C440.256 358.284 435.294 356.217 430 354C429.794 354.763 429.588 355.526 429.375 356.312C427.441 361.499 424.721 366.19 422 371C422.784 371.124 423.567 371.248 424.375 371.375C427 372 427 372 429 374C425.637 373.439 423.009 372.582 420 371C421.289 368.395 422.581 365.791 423.875 363.188C424.422 362.081 424.422 362.081 424.98 360.951C425.512 359.883 425.512 359.883 426.055 358.793C426.379 358.138 426.704 357.484 427.039 356.809C428 355 428 355 430 352C436.625 352.75 436.625 352.75 440 355C442.412 355.317 442.412 355.317 445 355.25C446.299 355.258 446.299 355.258 447.625 355.266C450.266 355.154 450.266 355.154 453 353C454.067 348.961 454.421 346.86 452.562 343.062C452.047 342.382 451.531 341.701 451 341Z" fill="#D7D7D7"/>
<path d="M211 230C210.039 230.329 210.039 230.329 209.059 230.664C201.307 233.506 195.491 236.662 191.625 244.188C188.322 251.469 187.462 259.874 189.789 267.629C191.43 271.029 192.84 272.894 196 275C196 275.99 196 276.98 196 278C195.34 278 194.68 278 194 278C188.618 271.551 185.498 264.704 185.746 256.176C186.847 246.746 190.72 239.342 198.063 233.328C202.077 230.577 206.191 228.397 211 230Z" fill="#D0D0D0"/>
<path d="M278 252C281.856 253.285 282.397 254.769 284.5 258.188C285.088 259.13 285.676 260.072 286.281 261.043C288 264 288 264 289.254 267.125C291.632 271.041 294.308 272.098 298.438 273.812C299.106 274.111 299.774 274.409 300.463 274.717C303.587 276.088 306.645 277.339 310 278C310.11 277.18 310.219 276.36 310.332 275.516C310.57 273.899 310.57 273.899 310.812 272.25C310.963 271.183 311.114 270.115 311.27 269.016C312.013 265.945 312.928 264.339 315 262C314 268 313 274 312 280C303.863 279.099 293.179 276.968 287.65 270.396C285.838 267.501 284.611 264.585 283.359 261.402C281.923 257.807 280.235 255.137 278 252Z" fill="#D3D3D3"/>
<path d="M209 250C209.66 250.33 210.32 250.66 211 251C210.34 251.66 209.68 252.32 209 253C208.757 255.44 208.757 255.44 208.875 258.125C208.893 259.035 208.911 259.945 208.93 260.883C208.953 261.581 208.976 262.28 209 263C209.99 263 210.98 263 212 263C212.418 263.443 212.835 263.887 213.266 264.344C215.771 266.736 218.482 267.406 221.75 268.5C226.603 270.163 231.328 271.886 236 274C234.601 277.404 233.13 278.908 230 280.812C229.299 281.252 228.598 281.692 227.875 282.145C227.256 282.427 226.637 282.709 226 283C225.34 282.67 224.68 282.34 224 282C225.121 281.161 226.247 280.329 227.375 279.5C228.001 279.036 228.628 278.572 229.273 278.094C231 277 231 277 233 277C231.352 273.705 227.691 273.278 224.375 272.125C210.54 267.309 210.54 267.309 207 262C206.734 259.59 206.734 259.59 206.75 256.938C206.745 256.06 206.74 255.182 206.734 254.277C207 252 207 252 209 250Z" fill="#D4D4D4"/>
<path d="M246 399C249.963 402.318 253.807 405.732 257.584 409.258C271.26 422.541 271.26 422.541 287 433C286.67 433.99 286.34 434.98 286 436C268.046 421.518 268.046 421.518 262 416C261.382 415.44 260.764 414.88 260.127 414.303C258.1 412.459 256.08 410.605 254.062 408.75C253.386 408.135 252.71 407.519 252.013 406.885C251.381 406.299 250.749 405.713 250.098 405.109C249.239 404.32 249.239 404.32 248.364 403.515C247 402 247 402 246 399Z" fill="#CBCBCB"/>
<path d="M461 196C461.33 196 461.66 196 462 196C462 202.93 462 209.86 462 217C462.99 217.33 463.98 217.66 465 218C464.361 218.103 463.721 218.206 463.063 218.312C462.042 218.653 462.042 218.653 461 219C460.67 219.99 460.34 220.98 460 222C456.797 204.582 456.797 204.582 461 196Z" fill="#FBFBFB"/>
<path d="M333 269C334.142 272.427 333.909 274.611 333.562 278.188C333.41 279.818 333.41 279.818 333.254 281.48C333.17 282.312 333.086 283.143 333 284C334.217 283.505 335.434 283.01 336.687 282.5C344.23 279.978 352.713 279.613 360 283C357 284 357 284 354 283C346.926 282.282 341.445 283.153 334.996 286.125C333 287 333 287 331 287C330.946 284.562 330.906 282.126 330.875 279.688C330.858 278.997 330.841 278.307 330.824 277.596C330.788 273.829 330.856 272.216 333 269Z" fill="#CCCCCC"/>
<path d="M495 223C495 223.99 495 224.98 495 226C489.805 230.748 482.554 232.871 476 235C475.325 235.228 474.649 235.456 473.953 235.691C470.221 236.872 466.902 237.19 463 237C462.67 238.32 462.34 239.64 462 241C462 238.69 462 236.38 462 234C463.732 234.068 463.732 234.068 465.5 234.137C469.975 234.132 473.772 233.206 478 231.812C478.696 231.59 479.391 231.367 480.108 231.138C485.552 229.319 490.86 227.14 495 223Z" fill="#C9C9C9"/>
<path d="M455 180C457 183 457 183 457 185C457.66 185 458.32 185 459 185C459 185.66 459 186.32 459 187C458.01 187.495 458.01 187.495 457 188C457.012 189.284 457.023 190.568 457.035 191.891C457.111 204.296 456.745 216.617 456 229C455.67 229 455.34 229 455 229C455 212.83 455 196.66 455 180Z" fill="#F9F9F9"/>
<path d="M376 417C376 420 376 420 373.586 422.777C372.523 423.839 371.453 424.892 370.375 425.938C369.592 426.725 369.592 426.725 368.793 427.529C365.43 430.847 362.009 433.502 358 436C357.34 434.68 356.68 433.36 356 432C356.66 431.01 357.32 430.02 358 429C359.611 428.832 359.611 428.832 361.254 428.66C365.867 427.847 367.922 425.779 370.938 422.438C371.431 421.917 371.924 421.397 372.432 420.861C373.635 419.588 374.82 418.296 376 417Z" fill="#8A8A8A"/>
<path d="M164 322C166.58 323.29 166.728 324.299 167.805 326.938C168.141 327.751 168.478 328.564 168.824 329.402C169.171 330.26 169.518 331.117 169.875 332C170.559 333.667 171.244 335.334 171.93 337C172.266 337.825 172.602 338.65 172.948 339.5C174.326 342.774 175.834 345.984 177.368 349.188C177.576 349.786 177.785 350.384 178 351C177.67 351.66 177.34 352.32 177 353C176.529 352.12 176.059 351.239 175.574 350.332C174.64 348.59 174.64 348.59 173.688 346.812C173.073 345.664 172.458 344.515 171.824 343.332C170.725 341.324 169.586 339.337 168.375 337.395C166.95 334.913 166.106 332.62 165.312 329.875C165.061 329.027 164.81 328.179 164.551 327.305C164 325 164 325 164 322Z" fill="#D5D5D5"/>
<path d="M107 227C110.36 227.605 113.449 228.433 116.645 229.629C117.906 230.098 117.906 230.098 119.193 230.576C120.49 231.064 120.49 231.064 121.812 231.562C122.696 231.892 123.58 232.221 124.49 232.561C126.661 233.37 128.831 234.184 131 235C126.716 236.336 123.667 235.203 119.562 233.75C118.907 233.532 118.252 233.314 117.576 233.09C113.758 231.78 110.333 230.287 107 228C107 227.67 107 227.34 107 227Z" fill="#C0C0C0"/>
<path d="M440 323C440.593 327.376 441.138 331.575 441 336C440.01 335.67 439.02 335.34 438 335C438 333.35 438 331.7 438 330C437.34 330 436.68 330 436 330C435.67 328.35 435.34 326.7 435 325C438 323 438 323 440 323Z" fill="#F8F8F8"/>
<path d="M314 262C315.612 266.03 314.224 268.988 313 273C312.63 275.328 312.286 277.66 312 280C310.35 280 308.7 280 307 280C307 279.34 307 278.68 307 278C307.99 278 308.98 278 310 278C310.121 277.18 310.242 276.36 310.367 275.516C310.535 274.438 310.702 273.36 310.875 272.25C311.037 271.183 311.2 270.115 311.367 269.016C311.932 266.323 312.634 264.364 314 262Z" fill="#C5C5C5"/>
<path d="M461 196C461.33 196 461.66 196 462 196C462 202.6 462 209.2 462 216C461.67 216 461.34 216 461 216C460.61 213.418 460.237 210.836 459.875 208.25C459.763 207.52 459.651 206.791 459.535 206.039C458.998 202.099 458.629 199.338 461 196Z" fill="#E7E7E7"/>
<path d="M353 302C356.875 303.75 356.875 303.75 358 306C358.375 310.963 358.141 314.044 355 318C354.01 318.33 353.02 318.66 352 319C354 315 354 315 355.188 313.125C356.337 310.118 355.786 308.078 355 305C354.34 304.01 353.68 303.02 353 302Z" fill="#DEDEDE"/>
<path d="M388 266C387.67 266.99 387.34 267.98 387 269C384.855 269.879 384.855 269.879 382.188 270.562C379.552 271.252 377.265 271.857 374.863 273.152C373 274 373 274 370 273C370.58 272.746 371.16 272.492 371.758 272.23C375.349 270.648 378.889 269.057 382.375 267.25C385 266 385 266 388 266Z" fill="#C1C1C1"/>
<path d="M339 304C339.66 304.33 340.32 304.66 341 305C337.761 306.965 334.584 308.752 331 310C327.375 308.812 327.375 308.812 325 307C325 306.67 325 306.34 325 306C326.013 306.035 326.013 306.035 327.047 306.07C327.939 306.088 328.831 306.106 329.75 306.125C330.632 306.148 331.513 306.171 332.422 306.195C335.129 305.99 336.626 305.228 339 304Z" fill="#B1B1B1"/>
<path d="M299 104C300.32 104.66 301.64 105.32 303 106C302.67 106.99 302.34 107.98 302 109C301.01 109.33 300.02 109.66 299 110C298.01 109.34 297.02 108.68 296 108C295.67 108.66 295.34 109.32 295 110C295 109.01 295 108.02 295 107C297 105.312 297 105.312 299 104Z" fill="#131213"/>
<path d="M413 292C413.33 292 413.66 292 414 292C414.108 293.603 414.186 295.207 414.25 296.812C414.296 297.706 414.343 298.599 414.391 299.52C414 302 414 302 411.984 303.824C411.33 304.212 410.675 304.6 410 305C410.31 303.395 410.623 301.791 410.938 300.188C411.112 299.294 411.286 298.401 411.465 297.48C412 295 412 295 413 292Z" fill="#ABABAB"/>
<path d="M237 392C240.795 393.491 242.61 395.757 245 399C244.01 399 243.02 399 242 399C237 393.535 237 393.535 237 392Z" fill="#191718"/>
<path d="M375 320C375.33 320.66 375.66 321.32 376 322C375.01 323.485 375.01 323.485 374 325C374 326.32 374 327.64 374 329C372.68 329 371.36 329 370 329C370.574 325.129 372.487 322.918 375 320Z" fill="#E0E0E0"/>
</svg>
